<svg xmlns="http://www.w3.org/2000/svg" width="20" height="20" viewBox="0 0 20 20" fill="none">
  <path
    d="M9.99984 15.8337C9.76373 15.8337 9.56581 15.7538 9.40609 15.5941C9.24637 15.4344 9.1665 15.2364 9.1665 15.0003V10.8337H4.99984C4.76373 10.8337 4.56581 10.7538 4.40609 10.5941C4.24637 10.4344 4.1665 10.2364 4.1665 10.0003C4.1665 9.76421 4.24637 9.5663 4.40609 9.40658C4.56581 9.24685 4.76373 9.16699 4.99984 9.16699H9.1665V5.00033C9.1665 4.76421 9.24637 4.5663 9.40609 4.40658C9.56581 4.24685 9.76373 4.16699 9.99984 4.16699C10.2359 4.16699 10.4339 4.24685 10.5936 4.40658C10.7533 4.5663 10.8332 4.76421 10.8332 5.00033V9.16699H14.9998C15.2359 9.16699 15.4339 9.24685 15.5936 9.40658C15.7533 9.5663 15.8332 9.76421 15.8332 10.0003C15.8332 10.2364 15.7533 10.4344 15.5936 10.5941C15.4339 10.7538 15.2359 10.8337 14.9998 10.8337H10.8332V15.0003C10.8332 15.2364 10.7533 15.4344 10.5936 15.5941C10.4339 15.7538 10.2359 15.8337 9.99984 15.8337Z"
    fill="#141414" />
</svg>