<svg xmlns="http://www.w3.org/2000/svg" width="24" height="24" viewBox="0 0 24 24" fill="none">
  <g clip-path="url(#clip0_1088_60882)">
    <mask id="mask0_1088_60882" style="mask-type:alpha" maskUnits="userSpaceOnUse" x="0" y="0" width="24" height="24">
      <rect width="24" height="24" fill="#D9D9D9" />
    </mask>
    <g mask="url(#mask0_1088_60882)">
      <path fill-rule="evenodd" clip-rule="evenodd"
        d="M8.00419 6.08226C8.54893 5.99127 9 5.55228 9 5C9 4.44772 8.55004 3.99344 8.00199 4.06165C4.05471 4.55286 1 7.9197 1 12C1 16.0803 4.05471 19.4471 8.00199 19.9384C8.55004 20.0066 9 19.5523 9 19C9 18.4477 8.54892 18.0087 8.00419 17.9177C5.16441 17.4434 3 14.9745 3 12C3 9.02554 5.16441 6.55661 8.00419 6.08226ZM9 12C9 8.68629 11.6863 6 15 6C18.3137 6 21 8.68629 21 12C21 15.3137 18.3137 18 15 18C11.6863 18 9 15.3137 9 12ZM15 4C10.5817 4 7 7.58172 7 12C7 16.4183 10.5817 20 15 20C19.4183 20 23 16.4183 23 12C23 7.58172 19.4183 4 15 4ZM16 8C16 7.44772 15.5523 7 15 7C14.4477 7 14 7.44772 14 8V11H11C10.4477 11 10 11.4477 10 12C10 12.5523 10.4477 13 11 13H14V16C14 16.5523 14.4477 17 15 17C15.5523 17 16 16.5523 16 16V13H19C19.5523 13 20 12.5523 20 12C20 11.4477 19.5523 11 19 11H16V8Z"
        fill="#D9D9D9" />
    </g>
  </g>
  <defs>
    <clipPath id="clip0_1088_60882">
      <rect width="24" height="24" fill="white" />
    </clipPath>
  </defs>
</svg>