<svg xmlns="http://www.w3.org/2000/svg" width="80" height="75" viewBox="0 0 80 75" fill="none">
  <path fill-rule="evenodd" clip-rule="evenodd"
    d="M0 5C0 2.23858 2.23497 0 4.99195 0H10.9723C15.6517 0 19.7033 3.25532 20.7184 7.8307L21.1997 10H75.008C76.558 10 78.0201 10.7212 78.965 11.9518C79.91 13.1824 80.2306 14.7829 79.8327 16.2834L70.5528 51.2834C69.9718 53.4746 67.9916 55 65.7281 55H24.9605C22.6208 55 20.595 53.3723 20.0875 51.0847L10.9723 10H4.99195C2.23497 10 0 7.76142 0 5ZM14.8486 67.5C14.8486 63.3579 18.2011 60 22.3366 60H22.4646C26.6 60 29.9525 63.3579 29.9525 67.5C29.9525 71.6421 26.6 75 22.4646 75H22.3366C18.2011 75 14.8486 71.6421 14.8486 67.5ZM59.9042 67.5C59.9042 63.3579 63.2566 60 67.3921 60C71.5275 60 74.88 63.3579 74.88 67.5C74.88 71.6421 71.5275 75 67.3921 75C63.2566 75 59.9042 71.6421 59.9042 67.5Z"
    fill="white" />
  <path
    d="M32.0632 27.4582C39.1542 27.6765 40.7056 23.3108 41.5917 23.3108C42.3008 23.3108 42.1795 23.7474 42.035 24.4022C40.927 29.4227 34.7224 31.3873 32.5064 29.8593C30.7337 28.6369 31.4647 27.4397 32.0632 27.4582Z"
    fill="#969696" />
  <path
    d="M60.0887 27.4582C52.9977 27.6765 51.4463 23.3108 50.5602 23.3108C49.8511 23.3108 49.9724 23.7474 50.1169 24.4022C51.2249 29.4227 57.4295 31.3873 59.6455 29.8593C61.4182 28.6369 60.6872 27.4397 60.0887 27.4582Z"
    fill="#969696" />
  <path
    d="M55.9892 40.8498C53.3823 33.1459 38.6516 32.9916 37.2061 41.535C36.8515 43.6305 38.3879 43.7178 39.2004 43.4995C48.5072 41.9716 49.172 43.063 53.3823 43.4995C56.4258 43.815 56.2846 41.7229 55.9892 40.8498Z"
    fill="#969696" />
</svg>