<svg xmlns="http://www.w3.org/2000/svg" width="20" height="18" viewBox="0 0 20 18" fill="none">
  <path fill-rule="evenodd" clip-rule="evenodd"
    d="M0.918945 1.63333C0.918945 1.00741 1.42636 0.5 2.05228 0.5H3.41C4.47239 0.5 5.39223 1.23787 5.62269 2.27496L5.73196 2.76667H17.9482C18.3001 2.76667 18.632 2.93013 18.8465 3.20907C19.0611 3.48801 19.1339 3.85078 19.0435 4.19089L16.9367 12.1242C16.8048 12.6209 16.3552 12.9667 15.8413 12.9667H6.58579C6.0546 12.9667 5.59468 12.5977 5.47945 12.0792L3.41 2.76667H2.05228C1.42636 2.76667 0.918945 2.25926 0.918945 1.63333ZM4.29007 15.8C4.29007 14.8611 5.05118 14.1 5.99007 14.1H6.01913C6.95801 14.1 7.71913 14.8611 7.71913 15.8C7.71913 16.7389 6.95801 17.5 6.01913 17.5H5.99007C5.05118 17.5 4.29007 16.7389 4.29007 15.8ZM14.5191 15.8C14.5191 14.8611 15.2802 14.1 16.2191 14.1C17.158 14.1 17.9191 14.8611 17.9191 15.8C17.9191 16.7389 17.158 17.5 16.2191 17.5C15.2802 17.5 14.5191 16.7389 14.5191 15.8Z"
    fill="#49BA40" />
</svg>