<svg width="25" height="24" viewBox="0 0 25 24" fill="none" xmlns="http://www.w3.org/2000/svg">
<path d="M7.6977 6.11538H22.1158L19.6849 15.2692H9.00539L6.67545 4.78446C6.50867 4.03397 5.84302 3.5 5.07422 3.5H3.77441M20.7746 19.8806V19.8117C20.7746 19.4696 20.4973 19.1923 20.1552 19.1923H20.1208C19.7597 19.1923 19.4669 19.485 19.4669 19.8462V19.8462C19.4669 20.2073 19.7597 20.5 20.1208 20.5H20.1552C20.4973 20.5 20.7746 20.2227 20.7746 19.8806ZM9.00539 19.8647V19.8276C9.00539 19.4767 8.72095 19.1923 8.37008 19.1923H8.31802C7.95691 19.1923 7.66417 19.485 7.66417 19.8462V19.8462C7.66417 20.2073 7.95691 20.5 8.31802 20.5H8.37008C8.72095 20.5 9.00539 20.2156 9.00539 19.8647Z" stroke="#262626" stroke-width="2.5" stroke-linecap="round" stroke-linejoin="round"/>
</svg>
