<svg xmlns="http://www.w3.org/2000/svg" width="36" height="36" viewBox="0 0 36 36" fill="none">
  <mask id="mask0_571_97320" style="mask-type:alpha" maskUnits="userSpaceOnUse" x="0" y="0" width="36" height="36">
    <rect x="0.5" y="0.5" width="35" height="35" fill="#D9D9D9" />
  </mask>
  <g mask="url(#mask0_571_97320)">
    <path
      d="M15.0832 20.3333L23.6873 11.7292C23.9547 11.4618 24.295 11.3281 24.7082 11.3281C25.1214 11.3281 25.4616 11.4618 25.729 11.7292C25.9964 11.9965 26.13 12.3368 26.13 12.75C26.13 13.1632 25.9964 13.5035 25.729 13.7708L16.104 23.3958C15.8123 23.6875 15.4721 23.8333 15.0832 23.8333C14.6943 23.8333 14.354 23.6875 14.0623 23.3958L10.2707 19.6042C10.0033 19.3368 9.86963 18.9965 9.86963 18.5833C9.86963 18.1701 10.0033 17.8299 10.2707 17.5625C10.538 17.2951 10.8783 17.1615 11.2915 17.1615C11.7047 17.1615 12.045 17.2951 12.3123 17.5625L15.0832 20.3333Z"
      fill="#262626" />
  </g>
</svg>