<svg xmlns="http://www.w3.org/2000/svg" width="18" height="18" viewBox="0 0 18 18" fill="none">
  <path
    d="M9.75 8.7V6C9.75 5.7875 9.67813 5.60938 9.53438 5.46562C9.39063 5.32187 9.2125 5.25 9 5.25C8.7875 5.25 8.60938 5.32187 8.46563 5.46562C8.32188 5.60938 8.25 5.7875 8.25 6V8.98125C8.25 9.08125 8.26875 9.17813 8.30625 9.27188C8.34375 9.36563 8.4 9.45 8.475 9.525L10.95 12C11.0875 12.1375 11.2625 12.2063 11.475 12.2063C11.6875 12.2063 11.8625 12.1375 12 12C12.1375 11.8625 12.2063 11.6875 12.2063 11.475C12.2063 11.2625 12.1375 11.0875 12 10.95L9.75 8.7ZM9 16.5C7.9625 16.5 6.9875 16.3031 6.075 15.9094C5.1625 15.5156 4.36875 14.9813 3.69375 14.3063C3.01875 13.6313 2.48438 12.8375 2.09063 11.925C1.69687 11.0125 1.5 10.0375 1.5 9C1.5 7.9625 1.69687 6.9875 2.09063 6.075C2.48438 5.1625 3.01875 4.36875 3.69375 3.69375C4.36875 3.01875 5.1625 2.48438 6.075 2.09063C6.9875 1.69687 7.9625 1.5 9 1.5C10.0375 1.5 11.0125 1.69687 11.925 2.09063C12.8375 2.48438 13.6313 3.01875 14.3063 3.69375C14.9813 4.36875 15.5156 5.1625 15.9094 6.075C16.3031 6.9875 16.5 7.9625 16.5 9C16.5 10.0375 16.3031 11.0125 15.9094 11.925C15.5156 12.8375 14.9813 13.6313 14.3063 14.3063C13.6313 14.9813 12.8375 15.5156 11.925 15.9094C11.0125 16.3031 10.0375 16.5 9 16.5Z"
    fill="#D9D9D9" />
</svg>