<svg xmlns="http://www.w3.org/2000/svg" width="30" height="30" viewBox="0 0 30 30" fill="none">
  <path
    d="M16.25 14.5V10C16.25 9.64583 16.1302 9.34896 15.8906 9.10937C15.651 8.86979 15.3542 8.75 15 8.75C14.6458 8.75 14.349 8.86979 14.1094 9.10937C13.8698 9.34896 13.75 9.64583 13.75 10V14.9687C13.75 15.1354 13.7812 15.2969 13.8437 15.4531C13.9062 15.6094 14 15.75 14.125 15.875L18.25 20C18.4792 20.2292 18.7708 20.3437 19.125 20.3437C19.4792 20.3437 19.7708 20.2292 20 20C20.2292 19.7708 20.3437 19.4792 20.3437 19.125C20.3437 18.7708 20.2292 18.4792 20 18.25L16.25 14.5ZM15 27.5C13.2708 27.5 11.6458 27.1719 10.125 26.5156C8.60417 25.8594 7.28125 24.9687 6.15625 23.8437C5.03125 22.7187 4.14062 21.3958 3.48437 19.875C2.82812 18.3542 2.5 16.7292 2.5 15C2.5 13.2708 2.82812 11.6458 3.48437 10.125C4.14062 8.60417 5.03125 7.28125 6.15625 6.15625C7.28125 5.03125 8.60417 4.14062 10.125 3.48437C11.6458 2.82812 13.2708 2.5 15 2.5C16.7292 2.5 18.3542 2.82812 19.875 3.48437C21.3958 4.14062 22.7187 5.03125 23.8437 6.15625C24.9687 7.28125 25.8594 8.60417 26.5156 10.125C27.1719 11.6458 27.5 13.2708 27.5 15C27.5 16.7292 27.1719 18.3542 26.5156 19.875C25.8594 21.3958 24.9687 22.7187 23.8437 23.8437C22.7187 24.9687 21.3958 25.8594 19.875 26.5156C18.3542 27.1719 16.7292 27.5 15 27.5ZM15 25C17.7708 25 20.1302 24.026 22.0781 22.0781C24.026 20.1302 25 17.7708 25 15C25 12.2292 24.026 9.86979 22.0781 7.92187C20.1302 5.97396 17.7708 5 15 5C12.2292 5 9.86979 5.97396 7.92187 7.92187C5.97396 9.86979 5 12.2292 5 15C5 17.7708 5.97396 20.1302 7.92187 22.0781C9.86979 24.026 12.2292 25 15 25Z"
    fill="#969696" />
</svg>