<svg xmlns="http://www.w3.org/2000/svg" width="40" height="40" viewBox="0 0 40 40" fill="none">
  <path
    d="M19.9998 22.3332L11.8332 30.4998C11.5276 30.8054 11.1387 30.9582 10.6665 30.9582C10.1943 30.9582 9.80539 30.8054 9.49984 30.4998C9.19428 30.1943 9.0415 29.8054 9.0415 29.3332C9.0415 28.861 9.19428 28.4721 9.49984 28.1665L17.6665 19.9998L9.49984 11.8332C9.19428 11.5276 9.0415 11.1387 9.0415 10.6665C9.0415 10.1943 9.19428 9.80539 9.49984 9.49984C9.80539 9.19428 10.1943 9.0415 10.6665 9.0415C11.1387 9.0415 11.5276 9.19428 11.8332 9.49984L19.9998 17.6665L28.1665 9.49984C28.4721 9.19428 28.861 9.0415 29.3332 9.0415C29.8054 9.0415 30.1943 9.19428 30.4998 9.49984C30.8054 9.80539 30.9582 10.1943 30.9582 10.6665C30.9582 11.1387 30.8054 11.5276 30.4998 11.8332L22.3332 19.9998L30.4998 28.1665C30.8054 28.4721 30.9582 28.861 30.9582 29.3332C30.9582 29.8054 30.8054 30.1943 30.4998 30.4998C30.1943 30.8054 29.8054 30.9582 29.3332 30.9582C28.861 30.9582 28.4721 30.8054 28.1665 30.4998L19.9998 22.3332Z"
    fill="white" />
</svg>