<svg xmlns="http://www.w3.org/2000/svg" width="20" height="20" viewBox="0 0 20 20" fill="none">
  <path
    d="M3.104 5.83333C2.74289 5.40278 2.48248 4.99306 2.32275 4.60417C2.16303 4.21528 2.07623 3.79167 2.06234 3.33333C2.06234 3.09722 2.14914 2.89931 2.32275 2.73958C2.49637 2.57986 2.70123 2.5 2.93734 2.5C3.14567 2.5 3.31581 2.58333 3.44775 2.75C3.5797 2.91667 3.64567 3.11111 3.64567 3.33333C3.64567 3.61111 3.69428 3.86806 3.7915 4.10417C3.88873 4.34028 4.05539 4.59722 4.2915 4.875C4.70817 5.375 5.00331 5.82292 5.17692 6.21875C5.35053 6.61458 5.43039 7.04167 5.4165 7.5C5.40262 7.73611 5.30539 7.93403 5.12484 8.09375C4.94428 8.25347 4.73595 8.33333 4.49984 8.33333C4.30539 8.33333 4.14914 8.25 4.03109 8.08333C3.91303 7.91667 3.854 7.72917 3.854 7.52083C3.854 7.20139 3.78803 6.90972 3.65609 6.64583C3.52414 6.38194 3.34012 6.11111 3.104 5.83333ZM6.45817 5.83333C6.09706 5.40278 5.83317 4.99306 5.6665 4.60417C5.49984 4.21528 5.40956 3.79167 5.39567 3.33333C5.39567 3.09722 5.48248 2.89931 5.65609 2.73958C5.8297 2.57986 6.03456 2.5 6.27067 2.5C6.479 2.5 6.64914 2.58333 6.78109 2.75C6.91303 2.91667 6.979 3.11111 6.979 3.33333C6.979 3.61111 7.02762 3.86806 7.12484 4.10417C7.22206 4.34028 7.38873 4.59722 7.62484 4.875C8.0415 5.375 8.33664 5.82292 8.51025 6.21875C8.68387 6.61458 8.76373 7.04167 8.74984 7.5C8.73595 7.73611 8.63873 7.93403 8.45817 8.09375C8.27762 8.25347 8.06928 8.33333 7.83317 8.33333C7.63873 8.33333 7.48248 8.25 7.36442 8.08333C7.24637 7.91667 7.18734 7.72917 7.18734 7.52083C7.20123 7.20139 7.1422 6.90972 7.01025 6.64583C6.87831 6.38194 6.69428 6.11111 6.45817 5.83333ZM9.7915 5.83333C9.43039 5.40278 9.16651 4.99306 8.99984 4.60417C8.83317 4.21528 8.74289 3.79167 8.729 3.33333C8.729 3.09722 8.81581 2.89931 8.98942 2.73958C9.16303 2.57986 9.36789 2.5 9.604 2.5C9.81234 2.5 9.98248 2.58333 10.1144 2.75C10.2464 2.91667 10.3123 3.11111 10.3123 3.33333C10.3123 3.61111 10.3609 3.86806 10.4582 4.10417C10.5554 4.34028 10.7221 4.59722 10.9582 4.875C11.3748 5.375 11.67 5.82292 11.8436 6.21875C12.0172 6.61458 12.0971 7.04167 12.0832 7.5C12.0693 7.73611 11.9721 7.93403 11.7915 8.09375C11.611 8.25347 11.4026 8.33333 11.1665 8.33333C10.9721 8.33333 10.8158 8.25 10.6978 8.08333C10.5797 7.91667 10.5207 7.72917 10.5207 7.52083C10.5346 7.20139 10.4755 6.90972 10.3436 6.64583C10.2116 6.38194 10.0276 6.11111 9.7915 5.83333ZM4.1665 16.6667C3.47206 16.6667 2.88178 16.4236 2.39567 15.9375C1.90956 15.4514 1.6665 14.8611 1.6665 14.1667V10.8333C1.6665 10.5972 1.74637 10.3993 1.90609 10.2396C2.06581 10.0799 2.26373 10 2.49984 10H13.354C13.4235 9.52778 13.611 9.11458 13.9165 8.76042C14.2221 8.40625 14.5971 8.15278 15.0415 8L18.104 6.97917C18.3262 6.90972 18.5415 6.92361 18.7498 7.02083C18.9582 7.11806 19.0971 7.27778 19.1665 7.5C19.236 7.72222 19.2186 7.9375 19.1144 8.14583C19.0103 8.35417 18.8471 8.49306 18.6248 8.5625L15.5623 9.58333C15.3957 9.63889 15.2603 9.73958 15.1561 9.88542C15.0519 10.0312 14.9998 10.1944 14.9998 10.375V14.1667C14.9998 14.8611 14.7568 15.4514 14.2707 15.9375C13.7846 16.4236 13.1943 16.6667 12.4998 16.6667H4.1665ZM4.1665 15H12.4998C12.7359 15 12.9339 14.9201 13.0936 14.7604C13.2533 14.6007 13.3332 14.4028 13.3332 14.1667V11.6667H3.33317V14.1667C3.33317 14.4028 3.41303 14.6007 3.57275 14.7604C3.73248 14.9201 3.93039 15 4.1665 15Z"
    fill="#1C1B1F" />
</svg>