<svg xmlns="http://www.w3.org/2000/svg" width="25" height="24" viewBox="0 0 25 24" fill="none">
  <path
    d="M6.6665 20C5.74984 20 4.97067 19.6667 4.329 19C3.68734 18.3333 3.3665 17.5238 3.3665 16.5714H2.2665C1.95484 16.5714 1.69359 16.4619 1.48275 16.2429C1.27192 16.0238 1.1665 15.7524 1.1665 15.4286V13.1429C1.1665 11.8857 1.59734 10.8095 2.459 9.91429C3.32067 9.01905 4.3565 8.57143 5.5665 8.57143H7.7665C8.3715 8.57143 8.88942 8.79524 9.32025 9.24286C9.75109 9.69048 9.9665 10.2286 9.9665 10.8571V14.2857H13.8165L17.6665 9.31429V6.28571H15.4665C15.1548 6.28571 14.8936 6.17619 14.6828 5.95714C14.4719 5.7381 14.3665 5.46667 14.3665 5.14286C14.3665 4.81905 14.4719 4.54762 14.6828 4.32857C14.8936 4.10952 15.1548 4 15.4665 4H17.6665C18.2715 4 18.7894 4.22381 19.2203 4.67143C19.6511 5.11905 19.8665 5.65714 19.8665 6.28571V9.31429C19.8665 9.58095 19.8253 9.83333 19.7428 10.0714C19.6603 10.3095 19.5457 10.5333 19.399 10.7429L15.5765 15.7143C15.3748 15.981 15.1182 16.1905 14.8065 16.3429C14.4948 16.4952 14.174 16.5714 13.844 16.5714H9.9665C9.9665 17.5238 9.64567 18.3333 9.004 19C8.36234 19.6667 7.58317 20 6.6665 20ZM6.6665 17.7143C6.97817 17.7143 7.23942 17.6048 7.45025 17.3857C7.66109 17.1667 7.7665 16.8952 7.7665 16.5714H5.5665C5.5665 16.8952 5.67192 17.1667 5.88275 17.3857C6.09359 17.6048 6.35484 17.7143 6.6665 17.7143ZM8.8665 7.42857H5.5665C5.25484 7.42857 4.99359 7.31905 4.78275 7.1C4.57192 6.88095 4.4665 6.60952 4.4665 6.28571C4.4665 5.9619 4.57192 5.69048 4.78275 5.47143C4.99359 5.25238 5.25484 5.14286 5.5665 5.14286H8.8665C9.17817 5.14286 9.43942 5.25238 9.65025 5.47143C9.86109 5.69048 9.9665 5.9619 9.9665 6.28571C9.9665 6.60952 9.86109 6.88095 9.65025 7.1C9.43942 7.31905 9.17817 7.42857 8.8665 7.42857ZM19.8665 20C18.9498 20 18.1707 19.6667 17.529 19C16.8873 18.3333 16.5665 17.5238 16.5665 16.5714C16.5665 15.619 16.8873 14.8095 17.529 14.1429C18.1707 13.4762 18.9498 13.1429 19.8665 13.1429C20.7832 13.1429 21.5623 13.4762 22.204 14.1429C22.8457 14.8095 23.1665 15.619 23.1665 16.5714C23.1665 17.5238 22.8457 18.3333 22.204 19C21.5623 19.6667 20.7832 20 19.8665 20ZM19.8665 17.7143C20.1782 17.7143 20.4394 17.6048 20.6503 17.3857C20.8611 17.1667 20.9665 16.8952 20.9665 16.5714C20.9665 16.2476 20.8611 15.9762 20.6503 15.7571C20.4394 15.5381 20.1782 15.4286 19.8665 15.4286C19.5548 15.4286 19.2936 15.5381 19.0828 15.7571C18.8719 15.9762 18.7665 16.2476 18.7665 16.5714C18.7665 16.8952 18.8719 17.1667 19.0828 17.3857C19.2936 17.6048 19.5548 17.7143 19.8665 17.7143ZM3.3665 14.2857H7.7665V10.8571H5.5665C4.9615 10.8571 4.44359 11.081 4.01275 11.5286C3.58192 11.9762 3.3665 12.5143 3.3665 13.1429V14.2857Z"
    fill="#262626" />
</svg>