<svg width="110" height="110" viewBox="0 0 110 110" fill="none" xmlns="http://www.w3.org/2000/svg">
<path d="M0 20C0 8.95431 8.95431 0 20 0H90C101.046 0 110 8.95431 110 20V90C110 101.046 101.046 110 90 110H20C8.95431 110 0 101.046 0 90V20Z" fill="url(#paint0_linear_3405_26242)"/>
<path d="M34.875 56.4097V73.6597C34.875 75.2467 36.1659 76.5347 37.75 76.5347H52.125V56.4097H34.875Z" fill="white"/>
<path d="M75.125 44.9105H66.0285C66.6811 44.4649 67.2417 44.0221 67.6328 43.6254C69.9529 41.2937 69.9529 37.4987 67.6328 35.1671C65.3787 32.8959 61.4515 32.9016 59.2004 35.1671C57.9526 36.4177 54.6464 41.5094 55.1035 44.9105H54.8965C55.3507 41.5094 52.0445 36.4177 50.7996 35.1671C48.5456 32.9016 44.6184 32.9016 42.3672 35.1671C40.05 37.4987 40.05 41.2937 42.3644 43.6254C42.7583 44.0221 43.3189 44.4649 43.9715 44.9105H34.875C33.2909 44.9105 32 46.2014 32 47.7855V52.098C32 52.8915 32.644 53.5355 33.4375 53.5355H52.125V47.7855H57.875V53.5355H76.5625C77.356 53.5355 78 52.8915 78 52.098V47.7855C78 46.2014 76.712 44.9105 75.125 44.9105ZM51.9554 44.8156C51.9554 44.8156 51.8346 44.9105 51.4235 44.9105C49.4369 44.9105 45.6448 42.8462 44.4056 41.5985C43.201 40.3852 43.201 38.4072 44.4056 37.194C44.9893 36.6075 45.7626 36.2855 46.5849 36.2855C47.4043 36.2855 48.1776 36.6075 48.7612 37.194C50.699 39.1432 52.6252 44.1227 51.9554 44.8156ZM58.5736 44.9105C58.1654 44.9105 58.0446 44.8185 58.0446 44.8156C57.3748 44.1227 59.301 39.1432 61.2388 37.194C62.3974 36.0239 64.4243 36.0181 65.5944 37.194C66.8019 38.4072 66.8019 40.3852 65.5944 41.5985C64.3553 42.8462 60.5631 44.9105 58.5736 44.9105Z" fill="white"/>
<path d="M57.875 56.4097V76.5347H72.25C73.837 76.5347 75.125 75.2467 75.125 73.6597V56.4097H57.875Z" fill="white"/>
<defs>
<linearGradient id="paint0_linear_3405_26242" x1="11.55" y1="8.03371" x2="108.476" y2="98.6933" gradientUnits="userSpaceOnUse">
<stop stop-color="#9747FF"/>
<stop offset="1" stop-color="#50ADCA"/>
</linearGradient>
</defs>
</svg>
