<svg width="45" height="40" viewBox="0 0 45 40" fill="none" xmlns="http://www.w3.org/2000/svg">
<path d="M13.4375 7.53906V25.3404C13.4375 27.3164 11.8244 28.9007 9.8125 28.9007H8C7.00313 28.9007 6.1875 28.0996 6.1875 27.1205V21.7801H2.5625V27.1205C2.5625 30.0756 4.99125 32.4609 8 32.4609H9.8125C13.8181 32.4609 17.0625 29.2745 17.0625 25.3404V7.53906H13.4375ZM42.4375 22.4566L40.2081 20.267C39.5499 19.6177 38.7675 19.1025 37.9059 18.7512C37.0443 18.3998 36.1204 18.2193 35.1875 18.2199H31.5625V21.7801H35.1875C36.0938 21.7801 37 22.1362 37.6344 22.777L38.2688 23.4001L36.0938 24.6283C35.26 25.0912 34.3356 25.3404 33.375 25.3404H31.5625C30.5475 25.3404 29.75 24.5571 29.75 23.5603V9.3192H26.125V16.1015L25.0012 14.8732C23.7688 13.5381 21.775 12.8795 19.9444 12.8795H18.875V16.4397H19.9444C21.1044 16.4397 22.21 16.8848 23.0256 17.7036L26.125 20.7299V23.5603C26.125 25.554 24.53 27.1205 22.5 27.1205H18.875V30.6808H22.5C24.9831 30.6808 27.0312 29.4347 28.2456 27.5478C28.6754 27.9834 29.1914 28.3281 29.7618 28.5608C30.3321 28.7934 30.9449 28.9091 31.5625 28.9007H33.375C34.97 28.9007 36.5288 28.4912 37.9062 27.708L42.4375 25.1446V22.4566Z" fill="#089B43"/>
</svg>
