<svg width="46" height="40" viewBox="0 0 46 40" fill="none" xmlns="http://www.w3.org/2000/svg">
<path d="M25.3822 0.685547C26.7998 5.71991 25.7743 14.1136 21.3971 16.2617C16.0575 18.8821 13.6054 12.6118 13.9318 8.72644C10.2429 13.0729 8.0332 18.7051 8.0332 24.8264C8.0332 32.831 14.571 39.3145 22.6429 39.3145C30.7147 39.3145 37.2525 32.831 37.2525 24.8264C37.2525 15.065 32.5226 6.35402 25.3822 0.685547Z" fill="#EC2525"/>
<path d="M22.1128 33.881C18.8622 33.881 16.2324 31.3456 16.2324 28.1944C16.2324 21.3995 26.3813 26.2305 28.8735 16.2617C33.8578 21.2461 31.0397 33.881 22.1128 33.881Z" fill="#FF8C21"/>
</svg>
