<svg width="45" height="40" viewBox="0 0 45 40" fill="none" xmlns="http://www.w3.org/2000/svg">
<mask id="mask0_58_8426" style="mask-type:alpha" maskUnits="userSpaceOnUse" x="0" y="0" width="45" height="40">
<rect width="45" height="40" fill="#D9D9D9"/>
</mask>
<g mask="url(#mask0_58_8426)">
<path d="M14.0625 17.625C12.25 17.625 10.7031 16.9844 9.42188 15.7031C8.14062 14.4219 7.5 12.875 7.5 11.0625C7.5 9.25 8.14062 7.70312 9.42188 6.42188C10.7031 5.14062 12.25 4.5 14.0625 4.5C15.875 4.5 17.4219 5.14062 18.7031 6.42188C19.9844 7.70312 20.625 9.25 20.625 11.0625C20.625 12.875 19.9844 14.4219 18.7031 15.7031C17.4219 16.9844 15.875 17.625 14.0625 17.625ZM14.0625 13.875C14.8438 13.875 15.5078 13.6016 16.0547 13.0547C16.6016 12.5078 16.875 11.8438 16.875 11.0625C16.875 10.2812 16.6016 9.61719 16.0547 9.07031C15.5078 8.52344 14.8438 8.25 14.0625 8.25C13.2812 8.25 12.6172 8.52344 12.0703 9.07031C11.5234 9.61719 11.25 10.2812 11.25 11.0625C11.25 11.8438 11.5234 12.5078 12.0703 13.0547C12.6172 13.6016 13.2812 13.875 14.0625 13.875ZM30.9375 34.5C29.125 34.5 27.5781 33.8594 26.2969 32.5781C25.0156 31.2969 24.375 29.75 24.375 27.9375C24.375 26.125 25.0156 24.5781 26.2969 23.2969C27.5781 22.0156 29.125 21.375 30.9375 21.375C32.75 21.375 34.2969 22.0156 35.5781 23.2969C36.8594 24.5781 37.5 26.125 37.5 27.9375C37.5 29.75 36.8594 31.2969 35.5781 32.5781C34.2969 33.8594 32.75 34.5 30.9375 34.5ZM30.9375 30.75C31.7188 30.75 32.3828 30.4766 32.9297 29.9297C33.4766 29.3828 33.75 28.7188 33.75 27.9375C33.75 27.1562 33.4766 26.4922 32.9297 25.9453C32.3828 25.3984 31.7188 25.125 30.9375 25.125C30.1562 25.125 29.4922 25.3984 28.9453 25.9453C28.3984 26.4922 28.125 27.1562 28.125 27.9375C28.125 28.7188 28.3984 29.3828 28.9453 29.9297C29.4922 30.4766 30.1562 30.75 30.9375 30.75ZM8.8125 33.1875C8.46875 32.8438 8.29688 32.4062 8.29688 31.875C8.29688 31.3438 8.46875 30.9063 8.8125 30.5625L33.5625 5.8125C33.9063 5.46875 34.3438 5.29688 34.875 5.29688C35.4062 5.29688 35.8438 5.46875 36.1875 5.8125C36.5312 6.15625 36.7031 6.59375 36.7031 7.125C36.7031 7.65625 36.5312 8.09375 36.1875 8.4375L11.4375 33.1875C11.0938 33.5312 10.6562 33.7031 10.125 33.7031C9.59375 33.7031 9.15625 33.5312 8.8125 33.1875Z" fill="#FF6600"/>
</g>
</svg>
