<svg width="45" height="40" viewBox="0 0 45 40" fill="none" xmlns="http://www.w3.org/2000/svg">
<path d="M31.5228 18.3666C33.2603 13.848 36.4856 10.0147 40.6965 7.46326C31.0742 7.76856 23.3584 15.4227 23.3584 24.865V24.9086C25.4892 22.1391 28.2929 19.893 31.5228 18.3666ZM23.6475 15.1202C21.7899 10.3761 17.888 6.47814 13.0607 4.54395C16.69 9.10155 18.4273 14.7215 18.1298 20.5064C19.0943 21.0298 19.9915 21.6404 20.8662 22.2946C21.3461 19.761 22.288 17.3313 23.6475 15.1202Z" fill="#49BA40"/>
<path d="M0.928711 18.5784C11.7688 15.9437 23.3584 23.843 23.3584 35.4568H15.8818C15.8818 26.5815 9.16413 20.6592 0.928711 18.5784Z" fill="#49BA40"/>
<path d="M44.0713 20.1242C36.4974 18.2833 28.2864 21.383 24.1537 28.1272C25.2303 30.4454 25.8718 32.9276 26.0523 35.4568H26.9907C30.8525 28.9333 36.5811 22.0224 44.0713 20.1242Z" fill="#49BA40"/>
</svg>
