<svg width="45" height="40" viewBox="0 0 45 40" fill="none" xmlns="http://www.w3.org/2000/svg">
<path d="M22.4835 3C13.3755 3 6 10.392 6 19.5C6 28.608 13.3755 36 22.4835 36C31.608 36 39 28.608 39 19.5C39 10.392 31.608 3 22.4835 3ZM29.1 26.1C28.9474 26.253 28.766 26.3743 28.5664 26.4571C28.3668 26.5399 28.1528 26.5825 27.9368 26.5825C27.7207 26.5825 27.5067 26.5399 27.3071 26.4571C27.1075 26.3743 26.9261 26.253 26.7735 26.1L21.345 20.6715C21.1891 20.5187 21.0651 20.3365 20.9801 20.1354C20.8951 19.9343 20.8509 19.7183 20.85 19.5V12.9C20.85 11.9925 21.5925 11.25 22.5 11.25C23.4075 11.25 24.15 11.9925 24.15 12.9V18.8235L29.1 23.7735C29.7435 24.417 29.7435 25.4565 29.1 26.1Z" fill="#50ADCA"/>
</svg>
