<svg xmlns="http://www.w3.org/2000/svg" width="20" height="20" viewBox="0 0 20 20" fill="none">
  <mask id="mask0_571_97301" style="mask-type:alpha" maskUnits="userSpaceOnUse" x="0" y="0" width="20" height="20">
    <rect width="20" height="20" fill="#D9D9D9" />
  </mask>
  <g mask="url(#mask0_571_97301)">
    <path
      d="M9.99984 14.167C10.2359 14.167 10.4339 14.0871 10.5936 13.9274C10.7533 13.7677 10.8332 13.5698 10.8332 13.3337V10.0003C10.8332 9.76421 10.7533 9.5663 10.5936 9.40658C10.4339 9.24685 10.2359 9.16699 9.99984 9.16699C9.76373 9.16699 9.56581 9.24685 9.40609 9.40658C9.24637 9.5663 9.1665 9.76421 9.1665 10.0003V13.3337C9.1665 13.5698 9.24637 13.7677 9.40609 13.9274C9.56581 14.0871 9.76373 14.167 9.99984 14.167ZM9.99984 7.50033C10.2359 7.50033 10.4339 7.42046 10.5936 7.26074C10.7533 7.10102 10.8332 6.9031 10.8332 6.66699C10.8332 6.43088 10.7533 6.23296 10.5936 6.07324C10.4339 5.91352 10.2359 5.83366 9.99984 5.83366C9.76373 5.83366 9.56581 5.91352 9.40609 6.07324C9.24637 6.23296 9.1665 6.43088 9.1665 6.66699C9.1665 6.9031 9.24637 7.10102 9.40609 7.26074C9.56581 7.42046 9.76373 7.50033 9.99984 7.50033ZM9.99984 18.3337C8.84706 18.3337 7.76373 18.1149 6.74984 17.6774C5.73595 17.2399 4.854 16.6462 4.104 15.8962C3.354 15.1462 2.76025 14.2642 2.32275 13.2503C1.88525 12.2364 1.6665 11.1531 1.6665 10.0003C1.6665 8.84755 1.88525 7.76421 2.32275 6.75033C2.76025 5.73644 3.354 4.85449 4.104 4.10449C4.854 3.35449 5.73595 2.76074 6.74984 2.32324C7.76373 1.88574 8.84706 1.66699 9.99984 1.66699C11.1526 1.66699 12.2359 1.88574 13.2498 2.32324C14.2637 2.76074 15.1457 3.35449 15.8957 4.10449C16.6457 4.85449 17.2394 5.73644 17.6769 6.75033C18.1144 7.76421 18.3332 8.84755 18.3332 10.0003C18.3332 11.1531 18.1144 12.2364 17.6769 13.2503C17.2394 14.2642 16.6457 15.1462 15.8957 15.8962C15.1457 16.6462 14.2637 17.2399 13.2498 17.6774C12.2359 18.1149 11.1526 18.3337 9.99984 18.3337ZM9.99984 16.667C11.8609 16.667 13.4373 16.0212 14.729 14.7295C16.0207 13.4378 16.6665 11.8614 16.6665 10.0003C16.6665 8.13921 16.0207 6.56283 14.729 5.27116C13.4373 3.97949 11.8609 3.33366 9.99984 3.33366C8.13873 3.33366 6.56234 3.97949 5.27067 5.27116C3.979 6.56283 3.33317 8.13921 3.33317 10.0003C3.33317 11.8614 3.979 13.4378 5.27067 14.7295C6.56234 16.0212 8.13873 16.667 9.99984 16.667Z"
      fill="#969696" />
  </g>
</svg>