<svg xmlns="http://www.w3.org/2000/svg" width="153" height="36" viewBox="0 0 153 36" fill="none">
  <path fill-rule="evenodd" clip-rule="evenodd"
    d="M2.17239 27.4378C1.92269 27.5614 1.63554 27.5738 1.31093 27.4749C0.986317 27.3759 0.686676 27.1905 0.412006 26.9184C0.162305 26.6711 0.0249701 26.3991 0 26.1023C0.0749102 25.9045 0.187275 25.7437 0.337096 25.6201C0.511886 25.4964 0.724131 25.4346 0.973832 25.4346C1.07371 25.4346 1.16111 25.4099 1.23602 25.3604C1.3359 25.2862 1.42329 25.212 1.4982 25.1378C1.67299 24.9895 1.86027 24.804 2.06003 24.5814C2.28476 24.3588 2.497 24.1363 2.69676 23.9137L3.25859 23.3573C3.40841 23.1841 3.49581 23.0852 3.52078 23.0605C3.99521 22.5412 4.40721 22.0465 4.75679 21.5767C5.13134 21.1068 5.60577 20.4762 6.18009 19.6848C6.45476 19.3138 6.70446 18.9305 6.92919 18.5348L7.60338 17.3478C7.77817 17.051 7.94047 16.7543 8.09029 16.4575C8.24011 16.1607 8.46484 15.9134 8.76448 15.7156C8.86436 15.1715 8.93928 14.8624 8.98921 14.7882C9.06413 14.714 9.20146 14.6027 9.40122 14.4543L9.28886 14.1576C9.66341 13.4899 9.91311 13.02 10.038 12.7479C10.1878 12.4512 10.2877 12.2286 10.3376 12.0802C10.3875 11.9318 10.4624 11.7464 10.5623 11.5238C10.6622 11.2765 10.8495 10.8561 11.1242 10.2625C11.1991 10.0152 11.2989 9.89159 11.4238 9.89159C11.5736 9.86686 11.6485 9.75557 11.6485 9.55773C11.6485 9.35989 11.7609 8.9642 11.9856 8.37067C12.2353 7.77714 12.5225 7.12179 12.8471 6.40461C13.1967 5.68743 13.4963 5.05681 13.746 4.51274C13.4963 4.51274 13.1842 4.5622 12.8096 4.66112C12.4601 4.73532 11.9731 4.94552 11.3489 5.29175C10.6248 5.63797 10.0754 5.91001 9.70086 6.10785C9.32631 6.28096 9.0017 6.39225 8.72703 6.44171C8.45236 6.46644 8.10278 6.41698 7.67829 6.29332C7.45356 5.87291 7.36616 5.42776 7.4161 4.95789C7.49101 4.46328 7.7532 4.12942 8.20266 3.95631C8.27757 3.93158 8.53975 3.83266 8.98921 3.65955C9.43868 3.48643 9.93808 3.30096 10.4874 3.10311C11.0368 2.90527 11.4987 2.74452 11.8733 2.62087C12.2728 2.47249 12.4476 2.41066 12.3976 2.43539C12.9719 2.28701 13.5462 2.12627 14.1206 1.95315C14.6949 1.78004 15.2692 1.5822 15.8435 1.35963C15.8934 1.35963 16.0682 1.34726 16.3679 1.32253C16.6925 1.2978 17.0421 1.2607 17.4166 1.21124C17.8161 1.16178 18.1657 1.11232 18.4653 1.06286C18.79 1.0134 18.9897 0.963939 19.0646 0.914479C19.564 0.889749 20.0759 0.951575 20.6003 1.09996C21.1496 1.24834 21.4368 1.40909 21.4618 1.5822C21.5117 1.78004 21.6241 1.91606 21.7988 1.99025C21.9736 2.03971 22.0985 2.16336 22.1734 2.3612L22.8476 2.88054C22.8975 2.88054 22.9475 3.06602 22.9974 3.43697C23.0723 3.7832 23.1223 4.07996 23.1472 4.32726C23.1972 4.5993 23.1722 5.04444 23.0723 5.6627C22.9974 6.25623 22.8726 6.88685 22.6978 7.55457C22.5479 8.19756 22.3981 8.75399 22.2483 9.22387C22.1235 9.69375 22.0361 9.92868 21.9861 9.92868C21.9362 10.2502 21.8613 10.5964 21.7614 10.9674C21.6615 11.3383 21.5866 11.6969 21.5367 12.0431C21.5367 12.0679 21.4867 12.2533 21.3868 12.5996C21.3119 12.9458 21.2121 13.3415 21.0872 13.7866C20.9623 14.2318 20.85 14.6151 20.7501 14.9366C20.6502 15.2581 20.6128 15.4188 20.6377 15.4188C20.5379 16.1113 20.3631 16.8903 20.1134 17.7558C19.8637 18.6214 19.5765 19.5117 19.2519 20.4267C18.9273 21.317 18.6152 22.1702 18.3155 22.9863C18.0409 23.7777 17.8286 24.4701 17.6788 25.0636C17.529 25.2615 17.4291 25.4841 17.3791 25.7314C17.3292 25.9787 17.2044 26.2012 17.0046 26.3991C16.8048 26.5722 16.5801 26.7082 16.3304 26.8071C16.1057 26.9061 15.8934 26.9061 15.6937 26.8071C15.444 26.7082 15.2317 26.5722 15.0569 26.3991C14.9071 26.226 14.7948 26.0034 14.7198 25.7314C14.7698 25.6572 14.8946 25.3604 15.0944 24.8411C15.2942 24.3217 15.5189 23.7158 15.7686 23.0234C16.0433 22.3309 16.2805 21.7003 16.4802 21.1315C16.705 20.538 16.8423 20.1547 16.8922 19.9816C16.9422 19.8085 17.0171 19.4622 17.117 18.9429C17.2418 18.4236 17.3792 17.8795 17.529 17.3107C17.7038 16.7172 17.8785 16.2596 18.0533 15.9382C18.1033 15.7898 18.1657 15.4559 18.2406 14.9366C18.3155 14.3925 18.4404 13.8113 18.6152 13.1931C18.6651 13.0447 18.74 12.7479 18.8399 12.3028C18.9398 11.8329 19.0397 11.3878 19.1395 10.9674C19.2644 10.5222 19.3393 10.2749 19.3643 10.2254L20.1134 6.84976C20.2132 6.57772 20.3006 6.12021 20.3756 5.47723C20.4754 4.80951 20.5379 4.20361 20.5628 3.65955C20.5379 3.61009 20.5004 3.56062 20.4505 3.51116C20.4255 3.43697 20.4505 3.35042 20.5254 3.2515C20.1259 3.2515 19.7139 3.27623 19.2894 3.32569C18.8898 3.35042 18.4778 3.38751 18.0533 3.43697C17.6288 3.48643 17.1794 3.56062 16.705 3.65955C16.3054 3.70901 16.0682 3.91921 15.9933 4.29017C15.9933 4.41382 15.9059 4.69822 15.7311 5.14337C15.5563 5.56378 15.3441 6.05839 15.0944 6.62718C14.8697 7.17125 14.6449 7.70295 14.4202 8.22229C14.1955 8.7169 14.0207 9.08785 13.8958 9.33516C13.5712 9.92868 13.2716 10.5346 12.9969 11.1528C12.7222 11.7464 12.4476 12.3523 12.1729 12.9705C12.048 13.3662 11.8233 13.9103 11.4987 14.6027C11.1741 15.2704 10.812 15.9876 10.4125 16.7543C10.013 17.5209 9.60098 18.2752 9.17649 19.0171C8.77697 19.7343 8.4149 20.3402 8.09029 20.8348C7.71574 21.3788 7.36616 21.8611 7.04155 22.2815C6.74191 22.6772 6.42979 23.0852 6.10518 23.5056C5.78057 23.9013 5.38104 24.3836 4.90661 24.9524C4.582 25.3728 4.13254 25.855 3.55823 26.3991C2.98392 26.9432 2.52197 27.2894 2.17239 27.4378ZM25.3746 25.9168C25.1249 25.6943 24.9127 25.4841 24.7379 25.2862C24.5881 25.0884 24.4757 24.8658 24.4008 24.6185C24.5007 24.4701 24.5506 24.3341 24.5506 24.2104V23.6169V22.467C24.5756 22.0713 24.5756 21.6756 24.5506 21.2799C24.5257 20.909 24.5881 20.5751 24.7379 20.2783C24.8877 19.9816 25.1124 19.7466 25.4121 19.5735C25.7117 19.4004 25.9365 19.2026 26.0863 18.98C26.2611 18.7574 26.3984 18.4606 26.4983 18.0897C26.6231 17.6445 26.723 17.2612 26.7979 16.9397C26.8728 16.6182 26.9602 16.2226 27.0601 15.7527C27.185 15.2581 27.3473 14.578 27.547 13.7124C27.5221 13.5146 27.5345 13.3291 27.5845 13.156C27.6594 12.9829 27.6968 12.7974 27.6968 12.5996C27.6968 12.0802 27.9715 11.7587 28.5209 11.6351C28.8704 11.734 29.1077 11.8206 29.2325 11.8947C29.3823 11.9442 29.5197 12.0184 29.6445 12.1173C29.7694 12.2162 29.9566 12.4141 30.2063 12.7108C30.2063 12.8098 30.1814 13.0076 30.1314 13.3044C30.1065 13.6011 30.044 13.8608 29.9442 14.0834C29.7694 14.6274 29.6071 15.1715 29.4572 15.7156C29.3324 16.2596 29.195 16.7914 29.0452 17.3107C29.0203 17.4343 28.9828 17.5704 28.9329 17.7187C28.9079 17.8424 28.9079 17.9784 28.9329 18.1268L31.8169 17.6816C31.9418 17.6569 32.0791 17.6816 32.2289 17.7558C32.3787 17.8053 32.541 17.8548 32.7158 17.9042C33.0904 17.187 33.4649 16.4575 33.8395 15.7156C34.239 14.9489 34.626 14.3183 35.0006 13.8237C35.2503 13.4775 35.475 13.2055 35.6748 13.0076C35.8995 12.8098 36.1492 12.6243 36.4239 12.4512C36.6985 12.1791 36.9982 12.006 37.3228 11.9318C37.6474 11.8329 37.9595 11.7835 38.2592 11.7835L38.5588 12.0802C38.6837 12.1791 38.796 12.2904 38.8959 12.4141C39.0208 12.513 39.1331 12.6119 39.233 12.7108C39.3579 12.8098 39.4827 12.9211 39.6076 13.0447C40.2568 12.9705 40.7687 12.9705 41.1432 13.0447C41.5427 13.0942 41.8798 13.3044 42.1545 13.6753C42.2044 13.7495 42.2294 13.8484 42.2294 13.9721C42.2544 14.071 42.2419 14.1452 42.192 14.1947L41.2181 15.0479C41.318 15.221 41.4054 15.4065 41.4803 15.6043C41.5552 15.7774 41.6426 15.9629 41.7425 16.1607C41.7425 16.2844 41.705 16.4204 41.6301 16.5688C41.5552 16.6924 41.5552 16.8284 41.6301 16.9768C41.8049 17.2736 41.8673 17.5827 41.8174 17.9042C41.7675 18.201 41.755 18.5225 41.7799 18.8687C41.8299 18.9923 41.8049 19.2026 41.705 19.4993C41.6052 19.7714 41.4928 20.0558 41.3679 20.3525C41.2681 20.6246 41.2056 20.8224 41.1807 20.946C41.1058 21.317 40.9559 21.6509 40.7312 21.9476C40.5065 22.2197 40.3317 22.5412 40.2068 22.9121C40.1819 22.9616 40.1319 23.011 40.057 23.0605L39.8323 23.1718C39.258 23.8148 38.6712 24.3217 38.0719 24.6927C37.6474 24.9895 37.2604 25.1997 36.9108 25.3233C36.5862 25.447 36.2491 25.5212 35.8995 25.5459H34.5886C34.0642 25.2739 33.7271 25.076 33.5773 24.9524C33.4275 24.8287 33.3276 24.7051 33.2777 24.5814C33.2277 24.4578 33.0529 24.2599 32.7533 23.9879C32.7533 23.6664 32.6284 23.3325 32.3787 22.9863C32.4287 22.7885 32.4287 22.5906 32.3787 22.3928C32.3288 22.1949 32.3038 22.0095 32.3038 21.8363V19.7219C31.9792 19.5982 31.767 19.5982 31.6671 19.7219C31.5672 19.8208 31.4299 19.8579 31.2551 19.8332C30.9305 20.0063 30.5684 20.1423 30.1689 20.2412C29.7943 20.3154 29.4947 20.3772 29.27 20.4267C29.0203 20.5009 28.7706 20.5998 28.5209 20.7235C28.2712 20.8471 28.1089 20.9584 28.0339 21.0573C27.7842 21.3046 27.6344 21.6385 27.5845 22.0589C27.5845 22.1578 27.5221 22.3804 27.3972 22.7266C27.2973 23.0729 27.185 23.4314 27.0601 23.8024C26.9602 24.1734 26.8978 24.433 26.8728 24.5814C26.8728 24.7051 26.8104 24.9153 26.6856 25.212C26.5857 25.5088 26.4858 25.6819 26.3859 25.7314C26.2361 25.8303 26.0863 25.9045 25.9365 25.9539C25.7866 26.0034 25.5994 25.991 25.3746 25.9168ZM35.9744 23.2089C36.3989 23.011 36.8359 22.7143 37.2853 22.3186C37.7348 21.9229 38.2717 21.2675 38.8959 20.3525C39.1706 19.8085 39.3579 19.4004 39.4577 19.1284C39.5826 18.8563 39.645 18.5719 39.645 18.2752C39.67 17.9784 39.6825 17.5456 39.6825 16.9768C39.6575 16.2596 39.4702 15.6785 39.1206 15.2333L38.1468 13.8237C37.7723 14.2936 37.3852 14.714 36.9857 15.085C36.5862 15.4559 36.1742 16.0742 35.7497 16.9397C35.4251 17.6322 35.1129 18.2875 34.8133 18.9058C34.5137 19.4993 34.4013 20.2412 34.4762 21.1315C34.4762 21.6509 34.5137 22.0218 34.5886 22.2444C34.6635 22.467 34.7134 22.7143 34.7384 22.9863C34.7883 23.1841 34.9506 23.2954 35.2253 23.3202C35.5 23.3449 35.7497 23.3078 35.9744 23.2089ZM46.9242 25.8797C46.7494 25.7808 46.5621 25.6819 46.3623 25.583L45.838 25.2862C45.6882 25.1873 45.5508 25.0884 45.426 24.9895C44.9016 24.5196 44.552 24.0126 44.3772 23.4685C44.2274 22.8997 44.1775 22.3557 44.2274 21.8363C44.2773 21.317 44.3523 20.8719 44.4521 20.5009C44.552 20.1052 44.602 19.8332 44.602 19.6848C44.577 19.487 44.6144 19.3015 44.7143 19.1284L45.014 18.5348C45.4634 17.6693 45.8754 16.9274 46.25 16.3091C46.6495 15.6661 47.2238 14.9242 47.9729 14.0834C48.1227 13.9597 48.2601 13.8484 48.3849 13.7495C48.5347 13.6259 48.6846 13.5393 48.8344 13.4899L49.6958 14.1205C49.7957 14.2194 49.8581 14.343 49.8831 14.4914C49.9081 14.6151 49.8831 14.7882 49.8082 15.0108C49.7583 15.1839 49.6958 15.357 49.6209 15.5301C49.571 15.6785 49.4961 15.8145 49.3962 15.9382C48.9717 16.3338 48.6346 16.779 48.3849 17.2736C48.1352 17.7435 47.873 18.2257 47.5984 18.7203C47.5984 18.9429 47.511 19.1284 47.3362 19.2767C47.1614 19.4004 47.0615 19.5859 47.0365 19.8332C47.0365 20.0063 47.0116 20.1794 46.9616 20.3525C46.9117 20.5256 46.8617 20.7111 46.8118 20.909C46.637 21.3046 46.5621 21.688 46.5871 22.0589C46.612 22.4299 46.6245 22.8132 46.6245 23.2089C46.8243 23.3078 46.9991 23.3696 47.1489 23.3943C47.2987 23.3943 47.4985 23.2707 47.7482 23.0234C48.2476 22.603 48.5972 22.232 48.7969 21.9105C49.0216 21.589 49.1964 21.2675 49.3213 20.946C49.4461 20.6246 49.6209 20.2536 49.8457 19.8332C50.0954 19.4128 50.3076 18.8811 50.4824 18.2381C50.6572 17.5951 50.782 16.9892 50.8569 16.4204C50.9319 15.8269 50.9319 15.4312 50.8569 15.2333C50.832 15.1097 50.8445 14.9613 50.8944 14.7882C50.9443 14.6151 50.8694 14.442 50.6697 14.2689C50.7696 14.1699 50.8195 13.9845 50.8195 13.7124C50.8195 13.4404 50.7945 13.156 50.7446 12.8592C50.6946 12.5625 50.6197 12.3523 50.5199 12.2286C50.4699 11.2394 50.4325 10.4109 50.4075 9.74321C50.4075 9.05076 50.42 8.45723 50.4449 7.96262C50.4949 7.44329 50.5573 6.96105 50.6322 6.5159C50.6572 6.44171 50.807 6.1944 51.0817 5.77399C51.3813 5.32884 51.656 4.98262 51.9057 4.73531C52.3302 4.36436 52.9045 4.07996 53.6286 3.88212C54.3777 3.65954 55.0145 3.57299 55.5388 3.62245C55.5139 3.64718 55.6637 3.65955 55.9883 3.65955C56.3379 3.65955 56.7249 3.64718 57.1494 3.62245C57.5739 3.59772 57.886 3.57299 58.0858 3.54826L58.6851 3.39988C58.8848 3.35042 59.2219 3.18967 59.6963 2.91764C59.8961 2.79398 60.0584 2.75689 60.1833 2.80635L61.1945 3.65955C61.1696 4.35199 60.9948 4.87133 60.6702 5.21756C60.3456 5.53905 59.7213 5.74926 58.7974 5.84818H58.3105C58.1357 5.82345 57.9609 5.83582 57.7861 5.88527C57.6363 5.93474 57.499 5.93474 57.3741 5.88527C57.2743 5.83582 57.1244 5.81109 56.9247 5.81109C56.65 5.81109 56.3628 5.84818 56.0632 5.92237C55.7636 5.97183 55.4514 5.95947 55.1268 5.88527C54.2279 6.13258 53.5287 6.46644 53.0293 6.88685C52.5299 7.30727 52.2802 7.99972 52.2802 8.9642C52.3801 9.87922 52.505 10.6953 52.6548 11.4125C52.8296 12.1297 52.917 12.9211 52.917 13.7866C52.9669 14.0092 53.0293 14.1947 53.1043 14.343C53.1792 14.4914 53.1417 14.6522 52.9919 14.8253C53.1167 15.3941 53.1792 15.9505 53.1792 16.4946C53.1792 17.0139 53.1043 17.4096 52.9544 17.6816C52.9045 17.8548 52.867 18.1763 52.8421 18.6461C52.8421 19.0913 52.7172 19.5611 52.4675 20.0558C51.8932 21.2181 51.3064 22.2568 50.7071 23.1718C50.1078 24.0621 49.3463 24.8163 48.4224 25.4346C48.2476 25.5335 48.0353 25.6077 47.7856 25.6572C47.5609 25.7066 47.2738 25.7808 46.9242 25.8797ZM55.2249 25.3604C55.0501 25.2615 54.8628 25.1997 54.663 25.1749C54.4882 25.1502 54.301 25.1255 54.1012 25.1007C53.9264 24.9276 53.7766 24.7545 53.6517 24.5814C53.5519 24.3836 53.477 24.161 53.427 23.9137C53.402 23.7653 53.427 23.6293 53.5019 23.5056C53.5768 23.382 53.6517 23.2707 53.7267 23.1718C53.8016 23.1718 53.889 23.1841 53.9888 23.2089H54.2885C54.713 22.8874 55.0875 22.5412 55.4121 22.1702C55.7617 21.7745 56.0988 21.3665 56.4234 20.946C56.773 20.4762 57.0851 20.0063 57.3598 19.5364C57.6345 19.0418 57.8592 18.5225 58.034 17.9784C58.1089 17.7558 58.1588 17.5333 58.1838 17.3107C58.2088 17.0634 58.2712 16.8408 58.3711 16.643C58.5209 16.3462 58.6333 16.0494 58.7082 15.7527C58.8081 15.4312 58.9079 15.1221 59.0078 14.8253C58.6333 14.7511 58.3461 14.7016 58.1463 14.6769C57.9716 14.6274 57.8093 14.5409 57.6594 14.4172C57.5096 14.2936 57.2974 14.1081 57.0227 13.8608C56.9977 13.5146 57.0352 13.2673 57.1351 13.1189C57.2349 12.9458 57.4722 12.8098 57.8467 12.7108C57.9965 12.6614 58.1463 12.6243 58.2962 12.5996C58.446 12.5501 58.5958 12.5254 58.7456 12.5254C59.0203 12.5006 59.295 12.4883 59.5696 12.4883C59.8443 12.4883 60.1315 12.5006 60.4311 12.5254C60.6309 12.5501 60.8306 12.5872 61.0304 12.6367L61.6297 12.785C61.8544 12.8592 62.0791 12.9581 62.3039 13.0818C62.5286 13.1807 62.7533 13.2673 62.978 13.3415C63.1528 13.3662 63.3151 13.428 63.465 13.5269C63.6148 13.6259 63.7771 13.7372 63.9519 13.8608C64.4013 14.1328 64.7509 14.4791 65.0006 14.8995C65.2503 15.2952 65.3752 15.7403 65.3752 16.2349C65.3752 17.0016 65.2628 17.7187 65.0381 18.3865C64.9132 18.8563 64.7759 19.3262 64.6261 19.7961C64.5012 20.266 64.3639 20.7358 64.2141 21.2057C64.1142 21.5272 64.0143 21.8363 63.9144 22.1331C63.8145 22.4299 63.7396 22.739 63.6897 23.0605C63.6398 23.3325 63.6023 23.6169 63.5773 23.9137C63.5524 24.2104 63.5149 24.5196 63.465 24.8411L63.1653 24.9153C63.0904 24.94 62.9905 24.9771 62.8657 25.0266C62.591 24.9276 62.3039 24.8287 62.0042 24.7298C61.7046 24.6061 61.4923 24.3465 61.3675 23.9508V23.8024C61.3925 23.7282 61.4049 23.6417 61.4049 23.5427V23.3202V23.0976C61.4549 22.6524 61.5298 22.2197 61.6297 21.7992C61.7295 21.3541 61.8544 20.9213 62.0042 20.5009C62.204 20.0063 62.3663 19.5241 62.4911 19.0542C62.616 18.5596 62.7408 18.0773 62.8657 17.6075C62.9406 17.3849 62.9905 17.1623 63.0155 16.9397C63.0654 16.6924 63.1029 16.4575 63.1279 16.2349C63.1528 15.9629 63.0904 15.6538 62.9406 15.3075C62.6909 15.1097 62.4287 14.9613 62.154 14.8624C61.8794 14.7387 61.5797 14.6522 61.2551 14.6027C61.2052 14.7758 61.1178 14.9613 60.9929 15.1591C60.968 15.2086 60.9555 15.2828 60.9555 15.3817C60.9555 15.4559 60.9305 15.5054 60.8806 15.5301C60.7307 15.629 60.6309 15.765 60.5809 15.9382C60.556 16.0865 60.531 16.2473 60.506 16.4204C60.481 16.544 60.4436 16.6677 60.3937 16.7914C60.3437 16.915 60.2813 17.0387 60.2064 17.1623C60.1065 17.2612 60.0441 17.3972 60.0191 17.5704C59.9941 17.7187 59.9692 17.8795 59.9442 18.0526C59.8943 18.4236 59.8069 18.7821 59.682 19.1284C59.5572 19.4746 59.3948 19.8579 59.1951 20.2783C59.0702 20.4514 58.9579 20.6369 58.858 20.8348C58.7581 21.0079 58.6582 21.1933 58.5584 21.3912C58.5334 21.4901 58.4834 21.589 58.4085 21.688C58.3336 21.7621 58.2712 21.8611 58.2213 21.9847C58.0964 22.232 57.9591 22.4917 57.8093 22.7637C57.6594 23.011 57.4846 23.2336 57.2849 23.4314C56.9603 23.7529 56.6357 24.0868 56.3111 24.433C56.0114 24.7792 55.6493 25.0884 55.2249 25.3604ZM81.0642 14.9366C81.3388 15.5796 81.3888 16.3215 81.214 17.1623C81.0392 18.0031 80.7021 18.844 80.2027 19.6848C79.7283 20.5256 79.1789 21.3046 78.5547 22.0218C77.9554 22.7143 77.3561 23.246 76.7568 23.6169C76.1576 23.9879 75.6581 24.1239 75.2586 24.025C75.1588 23.9755 75.0339 23.9384 74.8841 23.9137C74.7592 23.8642 74.6593 23.79 74.5844 23.6911C74.4846 23.5427 74.3972 23.3943 74.3223 23.246C74.2723 23.0729 74.2598 22.8997 74.2848 22.7266C74.3347 22.2568 74.4721 21.7003 74.6968 21.0573C74.9215 20.4143 75.2087 19.759 75.5583 19.0913C75.9079 18.4236 76.3074 17.7929 76.7568 17.1994C77.2063 16.5811 77.6682 16.0494 78.1427 15.6043C78.6421 15.1591 79.1415 14.8624 79.6409 14.714C79.9655 14.5904 80.2152 14.578 80.39 14.6769C80.5648 14.7511 80.7895 14.8377 81.0642 14.9366ZM72.6368 20.9831C72.412 21.3046 72.2997 21.5272 72.2997 21.6509C72.2997 21.7498 72.3371 21.8363 72.412 21.9105C72.487 21.96 72.4745 22.1207 72.3746 22.3928C72.2747 22.7143 72.2622 23.0605 72.3371 23.4314C72.437 23.8024 72.5993 24.161 72.8241 24.5072C73.0987 24.9276 73.4358 25.2862 73.8353 25.583C74.2349 25.8797 74.6344 26.0034 75.0339 25.9539C75.5333 25.9045 75.9828 25.7932 76.3823 25.6201C78.1552 24.8287 79.6409 23.8024 80.8394 22.5412C82.063 21.2552 82.9369 19.6848 83.4613 17.83C83.5362 17.5827 83.5612 17.3354 83.5362 17.0881C83.5362 16.8161 83.5986 16.5688 83.7235 16.3462V16.1607V15.9382C83.5487 15.5919 83.4488 15.2581 83.4238 14.9366C83.4238 14.5904 83.3614 14.2689 83.2366 13.9721C83.1367 13.6506 82.837 13.3662 82.3376 13.1189C82.038 12.9705 81.7508 12.7974 81.4762 12.5996C81.2015 12.4017 80.8894 12.3028 80.5398 12.3028C79.4161 12.3028 78.4049 12.6243 77.5059 13.2673C76.632 13.9103 75.8454 14.7016 75.1463 15.6414C74.4721 16.5564 73.8853 17.4591 73.3859 18.3494H72.2622H71.176C71.1511 18.3246 71.1261 18.3123 71.1011 18.3123C71.0761 18.2875 71.0387 18.2628 70.9888 18.2381C71.0137 17.9413 71.1136 17.558 71.2884 17.0881C71.4882 16.6182 71.7254 16.1236 72 15.6043C72.2747 15.085 72.5244 14.6027 72.7491 14.1576C72.9988 13.6877 73.1861 13.3291 73.311 13.0818C73.2111 12.8098 73.0488 12.5872 72.8241 12.4141C72.6243 12.2162 72.412 12.0308 72.1873 11.8577C72.0375 11.734 71.8627 11.6722 71.6629 11.6722C71.4632 11.6969 71.2884 11.8453 71.1386 12.1173C71.0137 12.3646 70.8889 12.6367 70.764 12.9334C70.6641 13.2055 70.5393 13.4033 70.3895 13.5269C70.3645 13.7495 70.3021 13.9474 70.2022 14.1205C70.1023 14.2936 70.0024 14.4791 69.9026 14.6769C69.3532 15.7403 68.9038 16.8284 68.5542 17.9413C68.2046 19.0542 67.8925 20.1918 67.6178 21.3541C67.468 21.9724 67.3306 22.6648 67.2058 23.4314C67.1059 24.1734 66.9436 24.8163 66.7189 25.3604C66.8187 25.5335 66.8937 25.6819 66.9436 25.8056C66.9935 25.9045 67.1059 26.0158 67.2807 26.1394C67.4805 26.1394 67.6677 26.1765 67.8425 26.2507C68.0423 26.3249 68.242 26.3744 68.4418 26.3991C68.5667 26.4238 68.6915 26.3991 68.8164 26.3249C68.9662 26.2507 69.0411 26.1271 69.0411 25.9539C69.0411 25.6077 69.0785 25.0884 69.1535 24.3959C69.2533 23.6787 69.3782 22.9492 69.528 22.2073C69.6778 21.4407 69.8401 20.7977 70.0149 20.2783H71.2135H72.412C72.462 20.3772 72.4994 20.4885 72.5244 20.6122C72.5743 20.7358 72.6118 20.8595 72.6368 20.9831ZM123.901 24.7669C123.377 25.212 122.765 25.4717 122.066 25.5459C121.392 25.6201 120.73 25.5212 120.081 25.2491C119.432 24.9524 118.895 24.5072 118.47 23.9137C118.046 23.3696 117.771 22.7514 117.646 22.0589C117.522 21.3417 117.509 20.4143 117.609 19.2767C117.684 18.3123 117.996 17.3478 118.545 16.3833C119.095 15.3941 119.756 14.5162 120.53 13.7495C121.329 12.9829 122.116 12.4512 122.89 12.1544C123.265 11.9071 123.577 11.7958 123.826 11.8206C124.101 11.8206 124.513 11.8453 125.062 11.8947C125.637 11.9689 126.061 12.0802 126.336 12.2286C126.636 12.377 126.873 12.5748 127.048 12.8221C127.422 13.1931 127.672 13.564 127.797 13.935C127.922 14.2812 127.984 14.6274 127.984 14.9737C127.884 15.5177 127.51 16.1855 126.86 16.9768C126.236 17.7435 125.412 18.3741 124.388 18.8687C123.839 19.0418 123.24 19.116 122.59 19.0913C121.941 19.0665 121.404 18.9058 120.98 18.609C120.505 18.4112 120.193 18.4483 120.043 18.7203C119.894 18.9676 119.756 19.5859 119.631 20.5751C119.532 21.5148 119.606 22.2073 119.856 22.6524C120.106 23.0729 120.443 23.3202 120.867 23.3943C121.367 23.4933 121.754 23.5675 122.029 23.6169C122.328 23.6417 122.69 23.5304 123.115 23.2831C123.514 23.0358 123.764 22.8997 123.864 22.875C123.964 22.8256 124.039 22.7761 124.089 22.7266L124.576 22.2444C124.75 22.0713 124.888 21.9476 124.988 21.8734C125.087 21.7745 125.2 21.7251 125.325 21.7251C125.449 21.7251 125.562 21.7869 125.662 21.9105C125.762 22.0095 125.861 22.0836 125.961 22.1331C126.211 22.1331 126.261 22.2815 126.111 22.5782C125.986 22.875 125.724 23.2336 125.325 23.654C124.925 24.0497 124.451 24.4207 123.901 24.7669ZM123.864 16.9026C124.139 16.779 124.426 16.6059 124.725 16.3833C125.025 16.136 125.275 15.8763 125.474 15.6043C125.699 15.3075 125.812 15.0602 125.812 14.8624C125.812 14.5162 125.649 14.2318 125.325 14.0092C125 13.7619 124.513 13.7248 123.864 13.8979C123.589 13.9721 123.277 14.1576 122.928 14.4543C122.578 14.7264 122.241 15.0355 121.916 15.3817C121.617 15.7279 121.367 16.0371 121.167 16.3091C120.992 16.5811 120.93 16.7419 120.98 16.7914C121.055 16.915 121.267 17.0139 121.617 17.0881C121.966 17.1376 122.353 17.1499 122.778 17.1252C123.227 17.1005 123.589 17.0263 123.864 16.9026ZM132.391 25.8427C132.316 25.8674 132.141 25.8303 131.867 25.7314C131.592 25.6077 131.292 25.4593 130.968 25.2862C130.668 25.0884 130.431 24.9029 130.256 24.7298C130.056 24.4825 129.869 24.2352 129.694 23.9879C129.544 23.7158 129.47 23.4067 129.47 23.0605C129.295 22.6895 129.195 22.3062 129.17 21.9105C129.17 21.4901 129.157 21.0821 129.132 20.6864C129.107 20.0681 129.245 19.4375 129.544 18.7945C129.844 18.1268 130.081 17.6322 130.256 17.3107C130.381 16.9645 130.631 16.5193 131.005 15.9753C131.405 15.4065 131.892 14.85 132.466 14.306C133.04 13.7619 133.64 13.3415 134.264 13.0447C134.663 12.8469 135.063 12.6861 135.462 12.5625C135.887 12.4141 136.374 12.4388 136.923 12.6367C137.198 12.7108 137.398 12.8098 137.522 12.9334C137.647 13.0571 137.785 13.1807 137.934 13.3044C138.134 13.156 138.296 12.7974 138.421 12.2286C138.571 11.6351 138.659 10.9674 138.684 10.2254C138.733 9.45881 138.696 8.72926 138.571 8.03681C138.471 7.31963 138.259 6.75084 137.934 6.33042C137.335 5.51432 136.673 4.98262 135.949 4.73531C135.225 4.48801 134.401 4.5622 133.477 4.95789C133.178 4.83424 132.903 4.5993 132.653 4.25307C132.429 3.90685 132.366 3.56062 132.466 3.2144C132.666 3.04129 132.915 2.86817 133.215 2.69506C133.515 2.52195 133.814 2.41066 134.114 2.3612C134.464 2.28701 134.813 2.23755 135.163 2.21282C135.537 2.18809 135.924 2.28701 136.324 2.50958C137.622 2.93 138.596 3.52353 139.245 4.29017C139.92 5.03208 140.381 5.93474 140.631 6.99814C140.881 8.06154 141.031 9.2857 141.081 10.6706C141.131 11.0663 141.143 11.4249 141.118 11.7464C141.118 12.0431 141.081 12.5501 141.006 13.2673C140.756 13.5888 140.656 13.9721 140.706 14.4172C140.781 14.8377 140.731 15.2333 140.556 15.6043C140.531 16.0247 140.431 16.3709 140.257 16.643C140.082 16.915 139.994 17.1747 139.994 17.422C139.545 18.6585 138.933 19.8703 138.159 21.0573C137.41 22.2444 136.549 23.2707 135.575 24.1363C134.601 25.0018 133.54 25.5706 132.391 25.8427ZM132.166 23.4314C132.416 23.5304 132.791 23.4314 133.29 23.1347C133.789 22.8132 134.301 22.3928 134.826 21.8734C135.35 21.3294 135.787 20.81 136.137 20.3154C136.261 20.1423 136.424 19.8579 136.623 19.4622C136.848 19.0665 137.048 18.6832 137.223 18.3123C137.423 17.9413 137.535 17.7064 137.56 17.6075C137.785 16.9892 137.909 16.408 137.934 15.864C137.984 15.2952 137.922 14.9242 137.747 14.7511C137.472 14.4296 137.023 14.3554 136.399 14.5285C135.799 14.7016 135.225 14.986 134.676 15.3817C134.276 15.6785 133.914 16.0742 133.59 16.5688C133.29 17.0387 132.978 17.4714 132.653 17.8671C132.678 18.0402 132.628 18.1886 132.503 18.3123C132.404 18.4359 132.291 18.5596 132.166 18.6832C131.842 19.3015 131.629 19.8826 131.53 20.4267C131.43 20.946 131.38 21.2675 131.38 21.3912C131.38 21.7869 131.442 22.1949 131.567 22.6153C131.692 23.0358 131.892 23.3078 132.166 23.4314ZM141.363 35.0052C140.814 35.1042 140.439 35.1165 140.239 35.0423C140.04 34.9681 139.765 34.8445 139.415 34.6714C139.141 34.4735 138.928 34.3252 138.779 34.2262C138.629 34.1273 138.554 34.0284 138.554 33.9295C138.554 33.8553 138.579 33.7687 138.629 33.6698C138.679 33.5956 138.766 33.5214 138.891 33.4472C139.041 33.3978 139.241 33.373 139.49 33.373C139.665 33.472 139.952 33.5214 140.352 33.5214C140.776 33.5214 141.038 33.472 141.138 33.373L141.475 33.1505C141.725 33.0268 142.05 32.9279 142.449 32.8537C143.223 32.4827 143.91 32.0129 144.509 31.4441C145.109 30.8753 145.683 30.1334 146.232 29.2183C146.457 28.8721 146.694 28.4641 146.944 27.9942C147.194 27.549 147.368 27.1039 147.468 26.6588C147.668 26.1641 147.893 25.4964 148.142 24.6556C148.417 23.8148 148.654 22.9863 148.854 22.1702C148.886 22.0364 148.915 21.9079 148.943 21.7847C148.766 21.9109 148.599 22.0518 148.442 22.2073C148.367 22.3062 148.192 22.4422 147.918 22.6153C147.643 22.7885 147.368 22.9492 147.094 23.0976C146.844 23.2212 146.682 23.2831 146.607 23.2831L146.494 23.3202C146.444 23.3202 146.419 23.3696 146.419 23.4685C146.419 23.518 146.257 23.6169 145.933 23.7653C145.608 23.889 145.271 24.0002 144.921 24.0992C144.572 24.1981 144.334 24.2475 144.21 24.2475C143.935 24.2475 143.648 24.0992 143.348 23.8024C143.073 23.5056 142.886 23.2707 142.786 23.0976C142.686 22.8503 142.562 22.6153 142.412 22.3928C142.262 22.1702 142.15 21.8982 142.075 21.5767C142.025 21.2552 142.05 20.8595 142.15 20.3896C142.249 20.0681 142.387 19.6106 142.562 19.0171C142.761 18.3988 142.974 17.7311 143.198 17.0139C143.448 16.2967 143.698 15.5919 143.947 14.8995C144.222 14.1823 144.472 13.5517 144.697 13.0076C144.921 12.4388 145.121 12.0308 145.296 11.7835C145.446 11.5856 145.608 11.462 145.783 11.4125C145.982 11.363 146.182 11.3878 146.382 11.4867C146.582 11.5609 146.757 11.7216 146.906 11.9689C147.181 12.3152 147.293 12.6119 147.243 12.8592C147.194 13.1065 146.969 13.5888 146.569 14.306C146.469 14.578 146.345 14.8748 146.195 15.1962C146.045 15.493 145.97 15.6909 145.97 15.7898C145.945 15.8392 145.895 16.0123 145.82 16.3091C145.77 16.5811 145.708 16.8408 145.633 17.0881C145.558 17.3354 145.483 17.4591 145.408 17.4591C145.308 17.558 145.196 17.8424 145.071 18.3123C144.946 18.7574 144.834 19.2644 144.734 19.8332C144.634 20.3772 144.572 20.8595 144.547 21.2799C144.522 21.6756 144.559 21.8734 144.659 21.8734C145.433 21.8734 146.232 21.5767 147.056 20.9831C147.844 20.4323 148.632 19.6471 149.42 18.6275C149.551 17.8656 149.712 17.1422 149.903 16.4575C150.252 15.2704 150.552 13.9474 150.802 12.4883C150.952 12.142 151.064 11.9442 151.139 11.8947C151.214 11.8206 151.376 11.7835 151.626 11.7835C151.9 11.7835 152.1 11.8082 152.225 11.8577C152.375 11.8824 152.537 12.0308 152.712 12.3028C152.962 12.7727 153.049 13.3291 152.974 13.9721C152.924 14.5904 152.737 15.1344 152.412 15.6043C152.163 15.9505 151.938 16.4946 151.738 17.2365C151.563 17.9537 151.388 18.8563 151.214 19.9445C151.089 20.4885 150.952 21.1315 150.802 21.8734C150.677 22.5906 150.54 23.3943 150.39 24.2846C150.29 24.5319 150.152 24.9153 149.978 25.4346C149.803 25.9292 149.691 26.3249 149.641 26.6217C149.616 26.7206 149.541 26.9184 149.416 27.2152C149.291 27.5119 149.166 27.7963 149.041 28.0684C148.916 28.3651 148.829 28.563 148.779 28.6619C147.805 30.6651 146.694 32.1983 145.446 33.2617C144.197 34.3252 142.836 34.9063 141.363 35.0052ZM107.571 4.54984C111.708 4.54984 116.186 7.70296 114.687 14.9366C113.189 22.1702 103.326 28.4577 98.2072 30.3312C98.2072 28.5546 96.1482 26.321 93.8232 23.7987C90.808 20.5277 87.3452 16.7711 87.3452 12.8963C87.3452 9.31105 90.2798 6.40461 93.8998 6.40461C96.8313 6.40461 99.3133 8.31057 100.151 10.9395C100.657 7.3293 103.786 4.54984 107.571 4.54984Z"
    fill="#141414" />
  <path fill-rule="evenodd" clip-rule="evenodd"
    d="M107.57 4.5498C111.708 4.5498 116.185 7.70292 114.687 14.9365C113.189 22.1702 103.325 28.4576 98.2067 30.3312C98.2067 28.5546 96.1478 26.321 93.8227 23.7987C90.8075 20.5276 87.3447 16.7711 87.3447 12.8963C87.3447 9.31102 90.2793 6.40458 93.8994 6.40458C96.8308 6.40458 99.3129 8.31053 100.151 10.9395C100.657 7.32926 103.786 4.5498 107.57 4.5498Z"
    fill="#FF6600" />
</svg>