<svg xmlns="http://www.w3.org/2000/svg" width="24" height="24" viewBox="0 0 24 24" fill="none">
  <mask id="mask0_655_1355" style="mask-type:alpha" maskUnits="userSpaceOnUse" x="0" y="0" width="24" height="24">
    <rect width="24" height="24" fill="#D9D9D9" />
  </mask>
  <g mask="url(#mask0_655_1355)">
    <path fill-rule="evenodd" clip-rule="evenodd"
      d="M10.0867 3C6.17283 3 3 6.17283 3 10.0867C3 14.0006 6.17283 17.1734 10.0867 17.1734C14.0006 17.1734 17.1734 14.0006 17.1734 10.0867C17.1734 6.17283 14.0006 3 10.0867 3ZM1 10.0867C1 5.06826 5.06826 1 10.0867 1C15.1052 1 19.1734 5.06826 19.1734 10.0867C19.1734 12.2357 18.4274 14.2104 17.1803 15.7661L21.7149 20.3007C22.1054 20.6912 22.1054 21.3244 21.7149 21.7149C21.3244 22.1054 20.6912 22.1054 20.3007 21.7149L15.7661 17.1803C14.2104 18.4274 12.2357 19.1734 10.0867 19.1734C5.06826 19.1734 1 15.1052 1 10.0867Z"
      fill="#141414" />
  </g>
</svg>