<svg xmlns="http://www.w3.org/2000/svg" width="25" height="24" viewBox="0 0 25 24" fill="none">
  <path d="M23.833 10.1667C23.833 10.0998 23.8257 10.0331 23.811 9.96783L22.6193 4.58883C22.3979 3.56788 21.8322 2.65409 21.0171 2.00069C20.202 1.34729 19.187 0.994008 18.1423 1.00008H7.52368C6.47964 0.994852 5.46551 1.34852 4.65114 2.00185C3.83677 2.65518 3.27162 3.5685 3.05034 4.58883L1.85501 9.96783C1.84035 10.0331 1.83297 10.0998 1.83301 10.1667V11.0834C1.83227 11.9759 2.15835 12.8377 2.74968 13.5062V18.4167C2.75113 19.6319 3.23448 20.7968 4.09371 21.656C4.95294 22.5153 6.11788 22.9986 7.33301 23.0001H18.333C19.5481 22.9986 20.7131 22.5153 21.5723 21.656C22.4315 20.7968 22.9149 19.6319 22.9163 18.4167V13.5062C23.5077 12.8377 23.8337 11.9759 23.833 11.0834V10.1667ZM3.66634 10.2667L4.83968 4.98666C4.97263 4.37456 5.31177 3.82669 5.80035 3.43472C6.28893 3.04276 6.89731 2.83048 7.52368 2.83341H8.24968V5.58341C8.24968 5.82652 8.34625 6.05968 8.51816 6.23159C8.69007 6.4035 8.92323 6.50008 9.16634 6.50008C9.40946 6.50008 9.64261 6.4035 9.81452 6.23159C9.98643 6.05968 10.083 5.82652 10.083 5.58341V2.83341H15.583V5.58341C15.583 5.82652 15.6796 6.05968 15.8515 6.23159C16.0234 6.4035 16.2566 6.50008 16.4997 6.50008C16.7428 6.50008 16.9759 6.4035 17.1479 6.23159C17.3198 6.05968 17.4163 5.82652 17.4163 5.58341V2.83341H18.1423C18.7687 2.83048 19.3771 3.04276 19.8657 3.43472C20.3542 3.82669 20.6934 4.37456 20.8263 4.98666L21.9997 10.2667V11.0834C21.9997 11.5696 21.8065 12.036 21.4627 12.3798C21.1189 12.7236 20.6526 12.9167 20.1663 12.9167H19.2497C18.7634 12.9167 18.2971 12.7236 17.9533 12.3798C17.6095 12.036 17.4163 11.5696 17.4163 11.0834C17.4163 10.8403 17.3198 10.6071 17.1479 10.4352C16.9759 10.2633 16.7428 10.1667 16.4997 10.1667C16.2566 10.1667 16.0234 10.2633 15.8515 10.4352C15.6796 10.6071 15.583 10.8403 15.583 11.0834C15.583 11.5696 15.3899 12.036 15.046 12.3798C14.7022 12.7236 14.2359 12.9167 13.7497 12.9167H11.9163C11.4301 12.9167 10.9638 12.7236 10.62 12.3798C10.2762 12.036 10.083 11.5696 10.083 11.0834C10.083 10.8403 9.98643 10.6071 9.81452 10.4352C9.64261 10.2633 9.40946 10.1667 9.16634 10.1667C8.92323 10.1667 8.69007 10.2633 8.51816 10.4352C8.34625 10.6071 8.24968 10.8403 8.24968 11.0834C8.24968 11.5696 8.05652 12.036 7.7127 12.3798C7.36889 12.7236 6.90257 12.9167 6.41634 12.9167H5.49968C5.01345 12.9167 4.54713 12.7236 4.20331 12.3798C3.8595 12.036 3.66634 11.5696 3.66634 11.0834V10.2667ZM18.333 21.1667H7.33301C6.60366 21.1667 5.90419 20.877 5.38847 20.3613C4.87274 19.8456 4.58301 19.1461 4.58301 18.4167V14.6337C4.88239 14.7112 5.19042 14.7503 5.49968 14.7501H6.41634C6.93684 14.7503 7.4514 14.6395 7.92564 14.425C8.39988 14.2105 8.82287 13.8972 9.16634 13.5062C9.50982 13.8972 9.93281 14.2105 10.407 14.425C10.8813 14.6395 11.3958 14.7503 11.9163 14.7501H13.7497C14.2702 14.7503 14.7847 14.6395 15.259 14.425C15.7332 14.2105 16.1562 13.8972 16.4997 13.5062C16.8432 13.8972 17.2661 14.2105 17.7404 14.425C18.2146 14.6395 18.7292 14.7503 19.2497 14.7501H20.1663C20.4756 14.7503 20.7836 14.7112 21.083 14.6337V18.4167C21.083 19.1461 20.7933 19.8456 20.2776 20.3613C19.7618 20.877 19.0624 21.1667 18.333 21.1667Z" fill="#262626"/>
</svg>