<svg width="24" height="24" viewBox="0 0 24 24" fill="none" xmlns="http://www.w3.org/2000/svg">
<path fill-rule="evenodd" clip-rule="evenodd" d="M10.5 4C10.5 3.44772 10.9477 3 11.5 3H12.5C13.0523 3 13.5 3.44772 13.5 4C13.5 4.55228 13.0523 5 12.5 5H11.5C10.9477 5 10.5 4.55228 10.5 4ZM3 15C3 10.0294 7.02944 6 12 6C16.9706 6 21 10.0294 21 15V17C21 17.5523 20.5523 18 20 18H4C3.44772 18 3 17.5523 3 17V15ZM1 20C1 19.4477 1.44772 19 2 19H22C22.5523 19 23 19.4477 23 20C23 20.5523 22.5523 21 22 21H2C1.44772 21 1 20.5523 1 20Z" fill="#141414"/>
</svg>
