<svg xmlns="http://www.w3.org/2000/svg" width="50" height="50" viewBox="0 0 50 50" fill="none">
  <path
    d="M25.0002 44.4271C24.5141 44.4271 24.0279 44.3403 23.5418 44.1667C23.0557 43.9931 22.6217 43.7327 22.2397 43.3854C19.9828 41.3021 17.9863 39.2709 16.2502 37.2917C14.5141 35.3125 13.0644 33.3941 11.9012 31.5365C10.738 29.6788 9.85259 27.8906 9.24495 26.1719C8.63732 24.4531 8.3335 22.8125 8.3335 21.25C8.3335 16.0417 10.0088 11.8924 13.3595 8.8021C16.7102 5.71183 20.5904 4.16669 25.0002 4.16669C29.4099 4.16669 33.2901 5.71183 36.6408 8.8021C39.9915 11.8924 41.6668 16.0417 41.6668 21.25C41.6668 22.8125 41.363 24.4531 40.7554 26.1719C40.1477 27.8906 39.2623 29.6788 38.0991 31.5365C36.9359 33.3941 35.4863 35.3125 33.7502 37.2917C32.0141 39.2709 30.0175 41.3021 27.7606 43.3854C27.3786 43.7327 26.9446 43.9931 26.4585 44.1667C25.9724 44.3403 25.4863 44.4271 25.0002 44.4271ZM25.0002 25C26.146 25 27.1269 24.592 27.9429 23.7761C28.7588 22.9601 29.1668 21.9792 29.1668 20.8334C29.1668 19.6875 28.7588 18.7066 27.9429 17.8906C27.1269 17.0747 26.146 16.6667 25.0002 16.6667C23.8543 16.6667 22.8734 17.0747 22.0575 17.8906C21.2415 18.7066 20.8335 19.6875 20.8335 20.8334C20.8335 21.9792 21.2415 22.9601 22.0575 23.7761C22.8734 24.592 23.8543 25 25.0002 25Z"
    fill="#FF6600" />
</svg>