<svg xmlns="http://www.w3.org/2000/svg" width="20" height="21" viewBox="0 0 20 21" fill="none">
  <mask id="mask0_1164_56475" style="mask-type:alpha" maskUnits="userSpaceOnUse" x="0" y="0" width="20" height="21">
    <rect y="0.5" width="20" height="20" fill="#D9D9D9" />
  </mask>
  <g mask="url(#mask0_1164_56475)">
    <path
      d="M4.99984 11.3333C4.76373 11.3333 4.56581 11.2534 4.40609 11.0937C4.24637 10.934 4.1665 10.7361 4.1665 10.5C4.1665 10.2638 4.24637 10.0659 4.40609 9.90621C4.56581 9.74649 4.76373 9.66663 4.99984 9.66663H14.9998C15.2359 9.66663 15.4339 9.74649 15.5936 9.90621C15.7533 10.0659 15.8332 10.2638 15.8332 10.5C15.8332 10.7361 15.7533 10.934 15.5936 11.0937C15.4339 11.2534 15.2359 11.3333 14.9998 11.3333H4.99984Z"
      fill="#141414" />
  </g>
</svg>