<svg xmlns="http://www.w3.org/2000/svg" width="25" height="24" viewBox="0 0 25 24" fill="none">
  <mask id="mask0_1174_38847" style="mask-type:alpha" maskUnits="userSpaceOnUse" x="0" y="0" width="25" height="24">
    <rect x="0.5" width="24" height="24" fill="#D9D9D9" />
  </mask>
  <g mask="url(#mask0_1174_38847)">
    <path
      d="M10.55 13.9504L4.15 11.3504C3.96667 11.2671 3.8125 11.1421 3.6875 10.9754C3.5625 10.8087 3.5 10.6171 3.5 10.4004C3.5 10.1837 3.55833 9.99206 3.675 9.82539C3.79167 9.65872 3.95 9.53372 4.15 9.45039L19.45 3.77539C19.65 3.69206 19.8417 3.67539 20.025 3.72539C20.2083 3.77539 20.3667 3.86706 20.5 4.00039C20.6333 4.13372 20.725 4.29206 20.775 4.47539C20.825 4.65872 20.8083 4.85039 20.725 5.05039L15.05 20.3504C14.9667 20.5671 14.8375 20.7296 14.6625 20.8379C14.4875 20.9462 14.3083 21.0004 14.125 21.0004C13.9417 21.0004 13.7583 20.9462 13.575 20.8379C13.3917 20.7296 13.25 20.5671 13.15 20.3504L10.55 13.9504Z"
      fill="#141414" />
  </g>
</svg>