<svg xmlns="http://www.w3.org/2000/svg" width="25" height="24" viewBox="0 0 25 24" fill="none">
  <mask id="mask0_1158_23313" style="mask-type:alpha" maskUnits="userSpaceOnUse" x="0" y="0" width="25" height="24">
    <rect x="0.945312" width="24" height="24" fill="#D9D9D9" />
  </mask>
  <g mask="url(#mask0_1158_23313)">
    <path
      d="M12.9453 12C11.8453 12 10.9036 11.6083 10.1203 10.825C9.33698 10.0417 8.94531 9.1 8.94531 8C8.94531 6.9 9.33698 5.95833 10.1203 5.175C10.9036 4.39167 11.8453 4 12.9453 4C14.0453 4 14.987 4.39167 15.7703 5.175C16.5536 5.95833 16.9453 6.9 16.9453 8C16.9453 9.1 16.5536 10.0417 15.7703 10.825C14.987 11.6083 14.0453 12 12.9453 12ZM4.94531 18V17.2C4.94531 16.6333 5.09115 16.1125 5.38281 15.6375C5.67448 15.1625 6.06198 14.8 6.54531 14.55C7.57865 14.0333 8.62865 13.6458 9.69531 13.3875C10.762 13.1292 11.8453 13 12.9453 13C14.0453 13 15.1286 13.1292 16.1953 13.3875C17.262 13.6458 18.312 14.0333 19.3453 14.55C19.8286 14.8 20.2161 15.1625 20.5078 15.6375C20.7995 16.1125 20.9453 16.6333 20.9453 17.2V18C20.9453 18.55 20.7495 19.0208 20.3578 19.4125C19.9661 19.8042 19.4953 20 18.9453 20H6.94531C6.39531 20 5.92448 19.8042 5.53281 19.4125C5.14115 19.0208 4.94531 18.55 4.94531 18ZM6.94531 18H18.9453V17.2C18.9453 17.0167 18.8995 16.85 18.8078 16.7C18.7161 16.55 18.5953 16.4333 18.4453 16.35C17.5453 15.9 16.637 15.5625 15.7203 15.3375C14.8036 15.1125 13.8786 15 12.9453 15C12.012 15 11.087 15.1125 10.1703 15.3375C9.25365 15.5625 8.34531 15.9 7.44531 16.35C7.29531 16.4333 7.17448 16.55 7.08281 16.7C6.99115 16.85 6.94531 17.0167 6.94531 17.2V18ZM12.9453 10C13.4953 10 13.9661 9.80417 14.3578 9.4125C14.7495 9.02083 14.9453 8.55 14.9453 8C14.9453 7.45 14.7495 6.97917 14.3578 6.5875C13.9661 6.19583 13.4953 6 12.9453 6C12.3953 6 11.9245 6.19583 11.5328 6.5875C11.1411 6.97917 10.9453 7.45 10.9453 8C10.9453 8.55 11.1411 9.02083 11.5328 9.4125C11.9245 9.80417 12.3953 10 12.9453 10Z"
      fill="#262626" />
  </g>
</svg>