<svg xmlns="http://www.w3.org/2000/svg" width="25" height="24" viewBox="0 0 25 24" fill="none">
  <mask id="mask0_1088_1943" style="mask-type:alpha" maskUnits="userSpaceOnUse" x="0" y="0" width="25" height="24">
    <rect x="0.5" width="24" height="24" fill="#D9D9D9" />
  </mask>
  <g mask="url(#mask0_1088_1943)">
    <path
      d="M12.5 6C11.95 6 11.4792 5.80417 11.0875 5.4125C10.6958 5.02083 10.5 4.55 10.5 4C10.5 3.45 10.6958 2.97917 11.0875 2.5875C11.4792 2.19583 11.95 2 12.5 2C13.05 2 13.5208 2.19583 13.9125 2.5875C14.3042 2.97917 14.5 3.45 14.5 4C14.5 4.55 14.3042 5.02083 13.9125 5.4125C13.5208 5.80417 13.05 6 12.5 6ZM10.5 22C10.2167 22 9.97917 21.9042 9.7875 21.7125C9.59583 21.5208 9.5 21.2833 9.5 21V10.1C8.81667 10.3333 8.3375 10.7292 8.0625 11.2875C7.7875 11.8458 7.61667 12.45 7.55 13.1C7.51667 13.35 7.40833 13.5625 7.225 13.7375C7.04167 13.9125 6.825 14 6.575 14C6.275 14 6.02083 13.8917 5.8125 13.675C5.60417 13.4583 5.51667 13.2083 5.55 12.925C5.76667 11.1083 6.4875 9.66667 7.7125 8.6C8.9375 7.53333 10.5333 7 12.5 7C13.9833 7 15.1375 6.67083 15.9625 6.0125C16.7875 5.35417 17.2833 4.35 17.45 3C17.4833 2.71667 17.5958 2.47917 17.7875 2.2875C17.9792 2.09583 18.2167 2 18.5 2C18.7833 2 19.0208 2.1 19.2125 2.3C19.4042 2.5 19.4833 2.73333 19.45 3C19.3167 4.25 18.9375 5.35417 18.3125 6.3125C17.6875 7.27083 16.75 7.96667 15.5 8.4V21C15.5 21.2833 15.4042 21.5208 15.2125 21.7125C15.0208 21.9042 14.7833 22 14.5 22C14.2167 22 13.9792 21.9042 13.7875 21.7125C13.5958 21.5208 13.5 21.2833 13.5 21V16H11.5V21C11.5 21.2833 11.4042 21.5208 11.2125 21.7125C11.0208 21.9042 10.7833 22 10.5 22ZM5.5 22C5.21667 22 4.97917 21.9042 4.7875 21.7125C4.59583 21.5208 4.5 21.2833 4.5 21V17C4.5 16.7167 4.59583 16.4792 4.7875 16.2875C4.97917 16.0958 5.21667 16 5.5 16H6.5C6.78333 16 7.02083 16.0958 7.2125 16.2875C7.40417 16.4792 7.5 16.7167 7.5 17V21C7.5 21.2833 7.40417 21.5208 7.2125 21.7125C7.02083 21.9042 6.78333 22 6.5 22H5.5Z"
      fill="#141414" />
  </g>
</svg>