<svg xmlns="http://www.w3.org/2000/svg" width="25" height="24" viewBox="0 0 25 24" fill="none">
  <mask id="mask0_1164_63021" style="mask-type:alpha" maskUnits="userSpaceOnUse" x="0" y="0" width="25" height="24">
    <rect x="0.5" width="24" height="24" fill="#D9D9D9" />
  </mask>
  <g mask="url(#mask0_1164_63021)">
    <path
      d="M17.4998 16.9998V13.9998C17.4998 13.7165 17.5956 13.479 17.7873 13.2873C17.979 13.0956 18.2165 12.9998 18.4998 12.9998C18.7831 12.9998 19.0206 13.0915 19.2123 13.2748C19.404 13.4581 19.4998 13.6915 19.4998 13.9748V17.9998C19.4998 18.2831 19.404 18.5206 19.2123 18.7123C19.0206 18.904 18.7831 18.9998 18.4998 18.9998H7.3498L8.1748 19.8248C8.3748 20.0248 8.47897 20.2665 8.4873 20.5498C8.49564 20.8331 8.3998 21.0748 8.1998 21.2748C7.9998 21.4748 7.7623 21.5748 7.4873 21.5748C7.2123 21.5748 6.98314 21.4831 6.7998 21.2998L4.1998 18.6998C4.01647 18.5165 3.9248 18.2831 3.9248 17.9998C3.9248 17.7165 4.01647 17.4831 4.1998 17.2998L6.7748 14.7248C6.9748 14.5248 7.2123 14.4248 7.4873 14.4248C7.7623 14.4248 7.9998 14.5248 8.1998 14.7248C8.3998 14.9248 8.4998 15.1623 8.4998 15.4373C8.4998 15.7123 8.3998 15.9498 8.1998 16.1498L7.3498 16.9998H17.4998ZM7.4998 6.9998V9.9998C7.4998 10.2831 7.40397 10.5206 7.2123 10.7123C7.02064 10.904 6.78314 10.9998 6.4998 10.9998C6.21647 10.9998 5.97897 10.9081 5.7873 10.7248C5.59564 10.5415 5.4998 10.3081 5.4998 10.0248V5.9998C5.4998 5.71647 5.59564 5.47897 5.7873 5.2873C5.97897 5.09564 6.21647 4.9998 6.4998 4.9998H17.6498L16.8248 4.1748C16.6248 3.9748 16.5206 3.73314 16.5123 3.4498C16.504 3.16647 16.5998 2.9248 16.7998 2.7248C16.9998 2.5248 17.2373 2.4248 17.5123 2.4248C17.7873 2.4248 18.0165 2.51647 18.1998 2.6998L20.7998 5.2998C20.9831 5.48314 21.0748 5.71647 21.0748 5.9998C21.0748 6.28314 20.9831 6.51647 20.7998 6.6998L18.2248 9.2748C18.0248 9.4748 17.7873 9.5748 17.5123 9.5748C17.2373 9.5748 16.9998 9.4748 16.7998 9.2748C16.5998 9.0748 16.4998 8.83731 16.4998 8.5623C16.4998 8.2873 16.5998 8.0498 16.7998 7.8498L17.6498 6.9998H7.4998Z"
      fill="#262626" />
  </g>
</svg>