<svg xmlns="http://www.w3.org/2000/svg" width="21" height="20" viewBox="0 0 21 20" fill="none">
  <mask id="mask0_655_1390" style="mask-type:alpha" maskUnits="userSpaceOnUse" x="0" y="0" width="21" height="20">
    <rect x="0.5" width="20" height="20" fill="#D9D9D9" />
  </mask>
  <g mask="url(#mask0_655_1390)">
    <path
      d="M7.27067 18.1663C6.96511 18.1663 6.7047 18.0587 6.48942 17.8434C6.27414 17.6281 6.1665 17.3677 6.1665 17.0622V15.2705H5.20817C4.90262 15.2705 4.6422 15.1629 4.42692 14.9476C4.21164 14.7323 4.104 14.4719 4.104 14.1663C4.104 13.8608 4.21164 13.6004 4.42692 13.3851C4.6422 13.1698 4.90262 13.0622 5.20817 13.0622H6.1665V11.5413H5.20817C4.90262 11.5413 4.6422 11.4337 4.42692 11.2184C4.21164 11.0031 4.104 10.7427 4.104 10.4372C4.104 10.1316 4.21164 9.8712 4.42692 9.65592C4.6422 9.44065 4.90262 9.33301 5.20817 9.33301H6.1665V2.91634C6.1665 2.6094 6.27032 2.3521 6.47796 2.14447C6.6856 1.93683 6.94289 1.83301 7.24984 1.83301H12.0682C13.4115 1.83301 14.5554 2.30372 15.4998 3.24513C16.4443 4.18655 16.9165 5.3339 16.9165 6.68717C16.9165 8.04045 16.4458 9.1878 15.5044 10.1292C14.563 11.0706 13.4156 11.5413 12.0623 11.5413H8.37484V13.0622H10.8123C11.1179 13.0622 11.3783 13.1698 11.5936 13.3851C11.8089 13.6004 11.9165 13.8608 11.9165 14.1663C11.9165 14.4719 11.8089 14.7323 11.5936 14.9476C11.3783 15.1629 11.1179 15.2705 10.8123 15.2705H8.37484V17.0622C8.37484 17.3677 8.2672 17.6281 8.05192 17.8434C7.83664 18.0587 7.57623 18.1663 7.27067 18.1663ZM8.37484 9.33301H12.0623C12.7931 9.33301 13.4167 9.07472 13.9333 8.55815C14.4499 8.04158 14.7082 7.41792 14.7082 6.68717C14.7082 5.95642 14.4499 5.33276 13.9333 4.8162C13.4167 4.29963 12.7931 4.04134 12.0623 4.04134H8.37484V9.33301Z"
      fill="#969696" />
  </g>
</svg>