<svg xmlns="http://www.w3.org/2000/svg" width="24" height="24" viewBox="0 0 24 24" fill="none">
  <mask id="mask0_1088_60929" style="mask-type:alpha" maskUnits="userSpaceOnUse" x="0" y="0" width="24" height="24">
    <rect width="24" height="24" fill="#D9D9D9" />
  </mask>
  <g mask="url(#mask0_1088_60929)">
    <path
      d="M12 12C12 10.4833 12.5375 9.1875 13.6125 8.1125C14.6875 7.0375 15.9833 6.5 17.5 6.5C19.0167 6.5 20.3125 7.0375 21.3875 8.1125C22.4625 9.1875 23 10.4833 23 12H12ZM6.5 17.5C4.98333 17.5 3.6875 16.9625 2.6125 15.8875C1.5375 14.8125 1 13.5167 1 12H12C12 13.5167 11.4625 14.8125 10.3875 15.8875C9.3125 16.9625 8.01667 17.5 6.5 17.5ZM12 12C10.4833 12 9.1875 11.4625 8.1125 10.3875C7.0375 9.3125 6.5 8.01667 6.5 6.5C6.5 4.98333 7.0375 3.6875 8.1125 2.6125C9.1875 1.5375 10.4833 1 12 1V12ZM12 23V12C13.5167 12 14.8125 12.5375 15.8875 13.6125C16.9625 14.6875 17.5 15.9833 17.5 17.5C17.5 19.0167 16.9625 20.3125 15.8875 21.3875C14.8125 22.4625 13.5167 23 12 23Z"
      fill="#D9D9D9" />
  </g>
</svg>