<svg xmlns="http://www.w3.org/2000/svg" width="21" height="20" viewBox="0 0 21 20" fill="none">
  <mask id="mask0_655_1395" style="mask-type:alpha" maskUnits="userSpaceOnUse" x="0" y="0" width="21" height="20">
    <rect x="0.5" width="20" height="20" fill="#D9D9D9" />
  </mask>
  <g mask="url(#mask0_655_1395)">
    <path
      d="M10.4998 18.3337C9.36095 18.3337 8.28456 18.1149 7.27067 17.6774C6.25678 17.2399 5.37137 16.6427 4.61442 15.8857C3.85748 15.1288 3.26025 14.2434 2.82275 13.2295C2.38525 12.2156 2.1665 11.1392 2.1665 10.0003C2.1665 8.84755 2.38525 7.76769 2.82275 6.76074C3.26025 5.7538 3.85748 4.87185 4.61442 4.11491C5.37137 3.35796 6.25678 2.76074 7.27067 2.32324C8.28456 1.88574 9.36095 1.66699 10.4998 1.66699C11.6526 1.66699 12.7325 1.88574 13.7394 2.32324C14.7464 2.76074 15.6283 3.35796 16.3853 4.11491C17.1422 4.87185 17.7394 5.7538 18.1769 6.76074C18.6144 7.76769 18.8332 8.84755 18.8332 10.0003C18.8332 11.1392 18.6144 12.2156 18.1769 13.2295C17.7394 14.2434 17.1422 15.1288 16.3853 15.8857C15.6283 16.6427 14.7464 17.2399 13.7394 17.6774C12.7325 18.1149 11.6526 18.3337 10.4998 18.3337ZM10.4998 16.6253C10.8609 16.1253 11.1734 15.6045 11.4373 15.0628C11.7012 14.5212 11.9165 13.9448 12.0832 13.3337H8.9165C9.08317 13.9448 9.29845 14.5212 9.56234 15.0628C9.82623 15.6045 10.1387 16.1253 10.4998 16.6253ZM8.33317 16.292C8.08317 15.8337 7.86442 15.358 7.67692 14.8649C7.48942 14.3719 7.33317 13.8614 7.20817 13.3337H4.74984C5.15262 14.0281 5.65609 14.6323 6.26025 15.1462C6.86442 15.66 7.55539 16.042 8.33317 16.292ZM12.6665 16.292C13.4443 16.042 14.1353 15.66 14.7394 15.1462C15.3436 14.6323 15.8471 14.0281 16.2498 13.3337H13.7915C13.6665 13.8614 13.5103 14.3719 13.3228 14.8649C13.1353 15.358 12.9165 15.8337 12.6665 16.292ZM4.0415 11.667H6.87484C6.83317 11.3892 6.80192 11.1149 6.78109 10.8441C6.76025 10.5732 6.74984 10.292 6.74984 10.0003C6.74984 9.70866 6.76025 9.42741 6.78109 9.15658C6.80192 8.88574 6.83317 8.61144 6.87484 8.33366H4.0415C3.97206 8.61144 3.91998 8.88574 3.88525 9.15658C3.85053 9.42741 3.83317 9.70866 3.83317 10.0003C3.83317 10.292 3.85053 10.5732 3.88525 10.8441C3.91998 11.1149 3.97206 11.3892 4.0415 11.667ZM8.5415 11.667H12.4582C12.4998 11.3892 12.5311 11.1149 12.5519 10.8441C12.5728 10.5732 12.5832 10.292 12.5832 10.0003C12.5832 9.70866 12.5728 9.42741 12.5519 9.15658C12.5311 8.88574 12.4998 8.61144 12.4582 8.33366H8.5415C8.49984 8.61144 8.46859 8.88574 8.44775 9.15658C8.42692 9.42741 8.4165 9.70866 8.4165 10.0003C8.4165 10.292 8.42692 10.5732 8.44775 10.8441C8.46859 11.1149 8.49984 11.3892 8.5415 11.667ZM14.1248 11.667H16.9582C17.0276 11.3892 17.0797 11.1149 17.1144 10.8441C17.1491 10.5732 17.1665 10.292 17.1665 10.0003C17.1665 9.70866 17.1491 9.42741 17.1144 9.15658C17.0797 8.88574 17.0276 8.61144 16.9582 8.33366H14.1248C14.1665 8.61144 14.1978 8.88574 14.2186 9.15658C14.2394 9.42741 14.2498 9.70866 14.2498 10.0003C14.2498 10.292 14.2394 10.5732 14.2186 10.8441C14.1978 11.1149 14.1665 11.3892 14.1248 11.667ZM13.7915 6.66699H16.2498C15.8471 5.97255 15.3436 5.36838 14.7394 4.85449C14.1353 4.3406 13.4443 3.95866 12.6665 3.70866C12.9165 4.16699 13.1353 4.64269 13.3228 5.13574C13.5103 5.6288 13.6665 6.13921 13.7915 6.66699ZM8.9165 6.66699H12.0832C11.9165 6.05588 11.7012 5.47949 11.4373 4.93783C11.1734 4.39616 10.8609 3.87533 10.4998 3.37533C10.1387 3.87533 9.82623 4.39616 9.56234 4.93783C9.29845 5.47949 9.08317 6.05588 8.9165 6.66699ZM4.74984 6.66699H7.20817C7.33317 6.13921 7.48942 5.6288 7.67692 5.13574C7.86442 4.64269 8.08317 4.16699 8.33317 3.70866C7.55539 3.95866 6.86442 4.3406 6.26025 4.85449C5.65609 5.36838 5.15262 5.97255 4.74984 6.66699Z"
      fill="#969696" />
  </g>
</svg>